<svg version="1.0" xmlns="http://www.w3.org/2000/svg" width="650" height="125" fill="#429FFF"
        viewBox="0 0 6500.000000 622.000000" preserveAspectRatio="xMidYMid meet">
        <line x1="0" y1="700" x2="2700" y2="700" stroke="black" stroke-width="50" />
        <g transform="scale(50)">
                <text x="5" y="12" class="large" font-family="cursive">Starling Docs</text>
        </g>
        <line x1="2700" y1="700" x2="10000" y2="700" stroke="black" stroke-width="50" />
        <defs>
                <linearGradient id="grad2" x1="0%" y1="0%" x2="0%" y2="100%">
                        <stop offset="0%" style="stop-color:#429FFF;stop-opacity:1" />
                        <stop offset="100%" style="stop-color:grey;stop-opacity:1" />
                        <animate attributeName="x1" values="0;10;0" dur="14s" repeatCount="indefinite" />
                </linearGradient>
        </defs>
        <g transform="translate(5400,690) scale(0.1,-0.1)" fill="#429FFF" stroke="none">
                <path d="M1240 6139 c-71 -10 -132 -32 -173 -62 -17 -13 -49 -32 -71 -43 -107
-54 -265 -227 -300 -329 -29 -86 -36 -112 -36 -139 0 -16 -11 -41 -25 -58 -21
-24 -25 -40 -25 -89 0 -38 4 -58 10 -54 17 11 11 -3 -12 -28 -66 -69 -88 -97
-88 -110 0 -26 -26 -39 -66 -31 -33 6 -36 5 -30 -11 3 -10 1 -30 -6 -45 -9
-22 -21 -30 -53 -35 l-40 -7 47 -14 c26 -8 50 -18 53 -23 11 -19 -40 -41 -95
-42 -30 0 -64 -4 -75 -9 -18 -7 -16 -9 13 -15 44 -10 40 -25 -7 -25 -68 0 -83
-14 -21 -20 l55 -5 -45 -24 c-59 -33 -30 -40 40 -10 42 18 49 25 44 41 -5 15
-2 19 13 16 10 -2 19 -13 21 -25 2 -16 -8 -29 -42 -52 -60 -41 -68 -58 -16
-31 23 12 44 19 47 17 2 -3 -18 -24 -46 -47 -76 -64 -80 -89 -5 -33 52 39 50
26 -6 -33 -29 -30 -50 -58 -46 -61 3 -3 15 6 26 20 26 33 79 71 87 63 4 -3 -9
-22 -27 -41 -44 -45 -30 -45 24 0 49 40 56 42 56 17 0 -10 -17 -32 -38 -49
-37 -30 -87 -128 -113 -218 l-9 -30 20 25 c11 14 24 37 30 51 8 19 17 25 31
22 29 -8 28 -133 -2 -174 -23 -32 -37 -99 -21 -99 5 0 13 15 16 34 4 19 15 45
25 57 10 13 23 38 29 54 6 17 11 24 11 18 1 -7 8 -13 16 -13 21 0 19 -6 -15
-49 -17 -21 -33 -55 -36 -77 -6 -42 -5 -276 2 -283 10 -11 16 14 21 88 9 133
31 99 35 -54 1 -49 3 -72 5 -50 7 84 15 125 24 125 5 0 9 -21 9 -47 -3 -179
122 -772 176 -836 13 -16 24 -36 25 -45 0 -9 2 -37 3 -62 2 -50 77 -208 152
-320 87 -131 310 -390 335 -390 17 0 45 -28 72 -72 10 -16 24 -28 32 -28 8 0
27 -13 42 -30 14 -16 32 -30 39 -30 7 0 41 -30 76 -66 151 -159 295 -296 326
-312 37 -19 93 -102 69 -102 -14 0 -202 182 -370 358 -53 56 -102 102 -107
102 -33 0 4 -43 253 -291 129 -129 173 -166 242 -204 47 -26 91 -58 100 -71
15 -23 162 -127 226 -160 40 -20 58 -17 30 6 -15 13 -18 20 -9 20 8 0 30 -16
49 -36 39 -41 127 -94 155 -94 11 0 51 -18 89 -41 79 -46 90 -55 58 -45 -25 8
-25 17 -2 -116 6 -36 8 -76 4 -87 -7 -22 -125 -114 -300 -233 -55 -38 -145
-100 -200 -138 -55 -39 -165 -107 -244 -152 -82 -48 -152 -95 -164 -112 -25
-36 -78 -60 -191 -86 -108 -25 -127 -25 -176 0 -39 20 -130 28 -130 11 0 -4
22 -11 49 -14 27 -3 69 -16 92 -28 46 -23 66 -23 201 4 79 16 80 8 4 -23 -30
-12 -57 -28 -60 -36 -6 -16 -10 -16 78 -4 78 12 282 83 249 88 -11 2 -38 -4
-58 -12 -46 -20 -44 -20 -38 4 3 11 9 20 14 20 5 0 9 7 9 17 0 9 3 14 6 10 9
-8 46 32 39 43 -4 6 -1 10 5 10 6 0 9 4 5 9 -3 5 -1 12 4 16 6 3 8 -6 5 -22
-2 -16 -1 -23 3 -18 12 15 41 17 50 3 11 -19 10 -31 -5 -47 -19 -20 -8 -24 31
-12 20 7 51 32 74 59 22 26 80 74 129 107 48 33 129 92 179 130 127 99 153
117 159 107 7 -12 -150 -146 -274 -232 -58 -40 -132 -101 -165 -135 -55 -57
-69 -65 -165 -100 -129 -47 -144 -58 -65 -49 61 7 132 35 195 76 19 12 30 16
23 8 -17 -23 5 -44 50 -48 32 -3 37 -1 37 17 0 14 -11 24 -35 32 -49 18 -46
35 7 30 9 -1 19 3 23 9 3 6 -3 10 -14 10 -32 0 -25 19 11 35 23 9 37 10 46 3
6 -6 12 -7 12 -3 0 4 6 2 14 -4 16 -13 32 2 21 19 -4 6 -3 10 2 8 4 -1 23 2
41 6 34 8 57 38 48 62 -3 8 -2 13 3 10 5 -3 11 4 15 17 5 18 8 20 16 7 8 -12
10 -10 10 8 0 15 7 26 20 29 11 3 18 8 16 12 -2 3 10 17 27 31 17 14 28 20 24
13 -5 -8 -1 -11 12 -10 15 1 17 4 9 14 -6 8 -8 16 -4 20 3 3 6 1 6 -6 0 -7 5
-9 10 -6 6 4 7 12 4 18 -4 7 -4 9 1 5 4 -4 17 -3 29 3 20 10 20 10 2 -5 -27
-22 -31 -49 -5 -36 10 6 19 16 19 22 0 6 3 8 7 5 8 -8 39 34 35 47 -2 5 5 3
14 -5 12 -9 15 -9 10 -1 -4 6 -2 12 3 12 6 0 11 -6 11 -14 0 -8 5 -18 12 -22
6 -4 8 -3 5 3 -4 6 0 13 8 17 28 10 15 -21 -19 -47 -26 -20 -36 -23 -46 -14
-9 8 -11 8 -7 1 9 -16 -99 -108 -114 -98 -8 4 -9 3 -5 -5 4 -6 -20 -42 -59
-87 -36 -42 -64 -78 -61 -81 12 -12 48 13 92 64 77 89 423 362 576 454 54 32
99 66 110 84 29 48 21 51 -19 8 -22 -23 -51 -43 -70 -47 -17 -4 -37 -14 -44
-22 -6 -8 -16 -14 -21 -14 -6 0 -5 7 2 15 11 13 10 14 -5 9 -13 -5 -16 -4 -11
4 9 14 -22 16 -44 2 -9 -6 -20 -5 -29 3 -12 10 -13 9 -7 -1 9 -15 -12 -44 -26
-36 -6 4 -5 10 3 16 11 8 11 9 -1 5 -8 -2 -14 -11 -12 -20 3 -20 -35 -47 -56
-40 -13 5 -12 8 4 20 10 7 24 11 32 8 7 -2 10 0 7 5 -3 5 -20 7 -38 4 -28 -4
-29 -3 -9 5 12 6 22 15 22 21 0 5 3 9 8 9 4 -1 10 0 15 1 4 1 13 3 20 4 6 1
11 9 9 19 -2 10 6 33 17 51 22 35 27 71 12 80 -5 3 -12 -4 -15 -17 -6 -22 -29
-52 -56 -74 -13 -10 -15 0 -12 80 2 51 4 104 4 120 1 15 -7 36 -16 46 -13 15
-14 20 -4 23 13 5 -30 50 -91 96 -17 13 -31 28 -31 34 0 5 -11 23 -25 40 -15
17 -25 42 -25 60 0 25 -2 28 -14 19 -9 -8 -16 -9 -21 -2 -5 10 -50 32 -86 44
-9 3 -22 26 -29 51 -7 26 -23 57 -36 69 -24 23 -33 44 -13 31 12 -7 10 11 -7
128 -3 21 -9 38 -14 38 -9 0 -20 37 -13 44 12 12 54 -20 63 -50 7 -19 28 -47
47 -63 26 -22 34 -35 30 -50 -3 -12 -1 -19 3 -16 5 3 11 -4 15 -15 3 -11 10
-20 14 -20 4 0 29 -19 56 -43 31 -28 46 -48 41 -56 -6 -8 -35 15 -94 73 -47
48 -87 84 -89 82 -10 -9 28 -64 60 -89 19 -14 40 -40 47 -56 7 -17 15 -31 19
-31 3 0 17 -10 31 -23 14 -12 46 -39 71 -60 48 -38 125 -150 115 -166 -4 -5 8
-42 24 -83 l31 -73 -4 50 c-3 28 -8 61 -12 74 -10 29 9 21 26 -11 9 -16 8 -19
-2 -13 -8 6 -10 4 -5 -4 5 -7 10 -10 13 -7 3 3 15 -1 27 -9 45 -32 46 -12 1
36 -26 28 -44 56 -41 64 2 7 0 15 -7 18 -6 2 -3 6 7 10 10 4 15 3 11 -3 -3 -6
4 -10 17 -10 15 0 31 -12 47 -35 23 -34 45 -42 47 -17 1 7 2 15 3 18 0 3 10
-4 21 -17 l19 -24 -6 85 c-4 62 -3 82 5 75 7 -6 13 -41 14 -78 4 -101 28 -84
28 19 l0 55 44 -6 c59 -7 87 -18 111 -45 16 -18 19 -33 17 -94 -4 -80 3 -91
56 -102 21 -4 32 -3 32 5 0 21 25 11 43 -17 21 -30 20 -48 -3 -44 -11 2 -10
-2 4 -12 17 -14 45 -14 153 -1 24 3 40 -4 71 -31 30 -25 50 -34 76 -34 58 0
49 16 -46 80 -68 45 -90 78 -45 67 l22 -6 -24 20 c-13 10 -36 19 -52 19 -19 0
-29 5 -29 15 0 8 8 15 18 15 9 0 34 3 54 6 34 6 39 4 48 -20 5 -15 26 -51 45
-81 19 -31 35 -59 35 -63 0 -4 14 -20 32 -36 29 -25 33 -26 39 -9 4 10 -2 34
-12 55 -11 21 -17 38 -13 38 4 0 2 6 -5 13 -8 10 -7 17 2 26 9 10 9 11 -4 6
-10 -4 -20 3 -28 17 -21 41 -92 82 -174 103 -84 22 -102 38 -47 43 19 2 42 9
50 16 8 7 25 11 38 10 12 -1 35 -2 51 -3 25 -1 29 -5 34 -41 5 -43 31 -90 47
-90 10 0 15 35 12 84 -2 16 4 33 13 40 15 11 22 30 24 64 1 6 6 12 11 12 14 0
2 -47 -21 -86 -16 -27 -17 -33 -4 -50 21 -28 17 -102 -5 -89 -5 3 -11 1 -14
-4 -4 -5 -1 -13 5 -17 8 -5 10 -2 5 7 -4 8 4 1 18 -16 20 -23 26 -26 26 -12 0
9 8 17 18 17 14 0 17 -8 14 -55 -2 -33 1 -61 8 -70 9 -11 5 -17 -19 -29 -16
-9 -38 -16 -48 -16 -15 0 -14 -3 6 -16 14 -10 33 -14 50 -11 37 8 68 -1 76
-20 5 -14 -3 -15 -55 -10 -33 3 -60 1 -60 -4 0 -11 94 -81 138 -103 18 -10 41
-16 50 -14 11 3 0 13 -34 30 -49 26 -86 58 -66 58 9 0 100 -43 172 -81 21 -11
53 -19 80 -18 l45 1 -47 16 c-47 15 -66 42 -29 42 10 0 62 -16 115 -35 116
-42 138 -45 110 -14 -10 12 -36 32 -56 45 -44 28 -49 44 -13 44 13 0 32 8 42
19 10 10 39 28 66 39 26 12 47 22 47 24 0 2 -17 5 -37 6 -21 2 -43 9 -49 17
-6 8 -19 15 -28 15 -12 0 -15 -6 -10 -24 5 -20 0 -27 -25 -40 -16 -9 -47 -16
-68 -16 -34 1 -36 2 -20 14 16 13 16 14 -5 20 -22 7 -22 8 7 18 41 15 55 27
55 49 0 28 13 30 72 11 39 -12 79 -16 134 -14 l79 3 30 65 c17 35 33 64 37 64
22 0 15 -102 -15 -187 -12 -37 -12 -45 1 -73 l15 -30 81 2 81 2 -5 96 c-3 52
-4 97 -2 100 13 18 61 -121 64 -188 l3 -57 -115 3 c-63 2 -135 0 -158 -3 -43
-6 -44 -7 -25 -27 28 -32 87 -57 217 -96 122 -35 140 -39 253 -45 56 -3 61 -2
52 14 -14 28 -12 172 4 167 15 -6 55 -104 70 -174 16 -78 10 -81 -117 -55 -58
11 -115 21 -128 21 l-23 0 25 -20 c14 -11 45 -27 70 -37 25 -9 69 -30 98 -45
86 -45 217 -80 327 -88 55 -5 109 -11 120 -16 18 -7 17 -6 -3 16 -15 17 -22
36 -22 64 0 26 3 36 9 28 4 -8 11 -13 15 -12 15 3 76 -94 76 -121 0 -11 -16
-11 -155 6 -75 9 -45 -4 198 -89 126 -44 248 -93 288 -117 75 -44 139 -69 174
-69 12 0 49 -8 81 -19 44 -13 106 -20 239 -25 l180 -7 -150 81 c-82 45 -224
113 -315 152 -91 38 -183 81 -205 93 -22 13 -89 46 -150 73 -135 60 -480 274
-697 432 -252 183 -372 277 -440 343 -10 9 -18 31 -18 47 0 25 4 30 23 30 26
0 67 -38 67 -62 0 -22 16 -27 71 -21 62 7 96 -12 320 -180 83 -63 149 -111
304 -225 176 -129 212 -159 266 -224 l44 -52 -45 26 c-41 23 -109 62 -247 140
-72 41 -148 98 -148 111 0 11 -113 102 -231 187 -27 19 -61 54 -77 78 -16 24
-48 57 -70 73 -34 24 -50 29 -100 29 -60 0 -60 0 -42 -20 10 -11 47 -35 82
-52 35 -17 75 -43 88 -57 86 -92 137 -134 270 -224 177 -119 519 -325 555
-334 14 -3 86 -39 160 -78 126 -68 180 -92 180 -82 0 2 -71 46 -157 97 -135
80 -169 105 -233 174 -102 109 -187 192 -254 249 -31 27 -56 56 -56 65 1 11
17 -1 45 -33 24 -27 46 -47 50 -44 3 3 -18 33 -47 66 -99 113 -134 158 -206
261 -40 57 -105 141 -145 186 -105 121 -226 279 -288 376 -62 98 -135 186
-269 321 -142 143 -486 510 -515 549 -18 24 -25 29 -25 16 0 -28 -23 -13 -47
30 -23 39 -34 86 -13 54 5 -8 10 -11 10 -5 0 14 78 -64 233 -235 243 -268 335
-361 279 -282 -33 45 -279 330 -384 444 -92 100 -126 145 -76 102 22 -19 22
-19 8 2 -8 12 -46 60 -85 106 -38 47 -115 141 -169 209 -54 68 -120 147 -146
174 -41 43 -75 91 -175 243 -12 18 -51 63 -87 100 -35 37 -86 94 -112 127 -27
33 -59 67 -73 76 -30 20 -207 210 -223 239 -6 12 -14 19 -17 16 -4 -3 2 -21
12 -41 11 -19 16 -37 12 -41 -11 -11 -34 24 -54 80 -17 45 -66 106 -85 106 -5
0 2 -15 16 -33 27 -35 33 -57 16 -57 -11 0 -50 72 -50 93 0 17 -42 57 -59 57
-8 0 -10 -7 -6 -20 10 -31 -9 -23 -29 13 -10 17 -30 44 -44 60 -15 15 -31 42
-37 59 -7 22 -37 53 -97 100 -80 62 -98 66 -58 12 8 -11 36 -35 63 -53 54 -37
82 -74 73 -97 -3 -9 3 -28 14 -44 21 -30 27 -75 10 -85 -5 -3 -17 6 -26 20 -9
14 -19 23 -22 20 -8 -7 -32 16 -32 31 0 8 6 11 15 8 11 -5 15 1 15 18 0 34
-23 62 -83 102 -57 38 -109 90 -99 100 3 4 -10 -1 -29 -11 -19 -9 -38 -23 -44
-30 -8 -10 -21 -8 -64 12 -69 32 -58 52 16 28 64 -20 109 -9 48 13 -22 7 -50
14 -61 14 -31 0 -73 37 -56 48 7 5 24 7 38 4 17 -3 24 0 24 11 0 8 -6 18 -12
20 -7 3 0 5 16 4 21 -1 47 -18 90 -59 33 -32 62 -58 63 -58 11 0 -2 25 -32 64
-47 61 -44 69 7 21 l41 -40 -23 35 c-13 19 -39 52 -57 73 -18 20 -33 45 -33
55 0 9 -11 34 -25 54 -13 19 -43 91 -65 159 -34 104 -41 137 -41 204 0 44 7
105 16 135 8 30 19 78 24 107 13 70 22 85 78 126 77 56 162 94 300 133 70 21
148 46 172 56 l44 19 -34 25 c-41 30 -76 40 -194 54 -111 14 -169 26 -204 44
-35 18 -110 32 -96 18 22 -22 159 -62 267 -78 62 -9 138 -24 168 -33 l55 -17
-65 -21 c-36 -12 -92 -29 -125 -38 -33 -9 -91 -28 -130 -42 -38 -14 -78 -25
-87 -26 -10 -1 -18 -5 -18 -10 0 -4 -4 -5 -10 -2 -5 3 -38 -21 -71 -54 -63
-60 -94 -72 -62 -24 17 26 17 26 -7 20 -14 -3 -61 -12 -105 -21 -44 -9 -101
-23 -128 -32 -26 -8 -52 -12 -57 -9 -5 3 2 23 16 45 24 36 25 43 14 70 -11 26
-18 30 -49 30 -20 0 -52 -4 -70 -10 -78 -22 -46 14 78 88 l96 57 136 5 c94 4
141 9 153 19 26 21 19 26 -29 23 -46 -4 -105 13 -105 29 0 6 29 7 68 3 84 -8
75 10 -20 36 -45 12 -63 22 -62 33 1 9 -1 15 -5 14 -6 -2 -11 7 -11 18 0 2 21
-5 46 -15 55 -24 60 -25 44 -5 -38 46 -217 120 -362 149 -82 17 -272 20 -368
5z m375 -47 c-3 -3 -11 0 -18 7 -9 10 -8 11 6 5 10 -3 15 -9 12 -12z m-318
-62 c9 -33 5 -34 -59 -36 l-63 -2 48 15 c28 8 47 20 47 29 0 21 21 17 27 -6z
m73 -44 c0 -19 -6 -36 -14 -39 -10 -4 -13 4 -11 31 3 44 2 42 15 42 6 0 10
-15 10 -34z m-350 9 c-7 -8 -18 -15 -25 -15 -8 0 -25 -14 -39 -32 -27 -35 -45
-34 -26 2 12 23 67 60 89 60 11 0 11 -3 1 -15z m428 -6 c33 -11 34 -39 1 -39
-10 0 -22 -8 -28 -17 -12 -23 -18 -17 -26 30 -8 41 -1 45 53 26z m-348 -19 c0
-5 7 -10 15 -10 8 0 15 -4 15 -10 0 -5 -11 -10 -24 -10 -14 0 -28 5 -31 10 -7
12 2 30 16 30 5 0 9 -4 9 -10z m94 -16 c3 -8 2 -12 -4 -9 -6 3 -10 10 -10 16
0 14 7 11 14 -7z m306 6 c0 -5 -5 -10 -11 -10 -5 0 -7 5 -4 10 3 6 8 10 11 10
2 0 4 -4 4 -10z m-500 -54 c-14 -14 -24 0 -16 21 6 15 8 15 16 3 6 -9 5 -19 0
-24z m150 -20 c0 -2 -8 -10 -17 -17 -16 -13 -17 -12 -4 4 13 16 21 21 21 13z
m180 -65 c0 -16 -19 -23 -40 -16 -30 10 -24 25 10 25 17 0 30 -4 30 -9z m-430
-8 c0 -3 -14 -18 -30 -33 -25 -22 -38 -27 -66 -23 -21 3 -41 -1 -51 -8 -14
-12 -13 -14 8 -20 13 -3 23 -11 22 -17 -2 -6 4 -9 12 -6 9 4 15 0 15 -9 0 -13
-5 -13 -31 -4 -28 11 -33 10 -50 -12 -12 -15 -16 -28 -10 -35 15 -19 24 -76
12 -76 -13 0 -31 42 -31 73 0 28 41 127 50 122 4 -3 15 4 25 15 10 11 31 20
46 20 15 0 31 5 34 10 7 11 45 14 45 3z m228 -79 l4 -39 -21 24 c-22 25 -26
43 -14 55 14 14 27 -2 31 -40z m-208 12 c0 -11 -19 -15 -25 -6 -3 5 1 10 9 10
9 0 16 -2 16 -4z m105 -12 c11 -16 9 -64 -4 -64 -8 0 -29 68 -23 75 9 8 14 6
27 -11z m89 -76 c11 -16 13 -25 4 -35 -25 -31 -66 4 -45 39 15 23 23 23 41 -4z
m-84 -22 c0 -2 3 -11 6 -20 4 -11 1 -16 -10 -16 -9 0 -16 2 -16 4 0 2 -3 11
-6 20 -4 11 -1 16 10 16 9 0 16 -2 16 -4z m-150 -26 c0 -5 -5 -10 -11 -10 -5
0 -7 5 -4 10 3 6 8 10 11 10 2 0 4 -4 4 -10z m85 -20 c10 -11 15 -23 12 -27
-8 -7 -47 25 -47 39 0 14 16 9 35 -12z m215 10 c0 -5 -8 -10 -17 -10 -15 0
-16 2 -3 10 19 12 20 12 20 0z m71 -13 c-13 -13 -26 -3 -16 12 3 6 11 8 17 5
6 -4 6 -10 -1 -17z m-336 -47 c18 -36 19 -40 2 -40 -13 0 -37 40 -37 60 0 20
20 9 35 -20z m279 14 c9 -3 16 -10 16 -16 0 -14 -53 -5 -58 10 -4 13 16 16 42
6z m-434 -30 c0 -8 -4 -12 -10 -9 -5 3 -10 10 -10 16 0 5 5 9 10 9 6 0 10 -7
10 -16z m255 -26 c-2 -10 0 -18 4 -18 4 0 8 -7 8 -15 0 -8 -5 -11 -11 -8 -6 4
-27 7 -46 6 -20 -1 -25 1 -12 4 13 2 22 12 22 22 0 21 6 28 24 28 8 0 13 -8
11 -19z m-306 -21 c15 -19 -22 -57 -55 -57 -22 0 -24 2 -13 23 26 49 46 59 68
34z m51 -47 c0 -5 -5 -10 -11 -10 -5 0 -7 5 -4 10 3 6 8 10 11 10 2 0 4 -4 4
-10z m113 -25 c-3 -14 -30 -18 -61 -9 l-27 7 25 8 c32 10 66 7 63 -6z m227 6
c0 -12 -28 -22 -34 -12 -3 5 -3 11 1 15 9 9 33 7 33 -3z m-87 -36 c20 -8 38
-19 42 -25 10 -16 -39 -12 -61 5 -10 8 -34 15 -52 15 -20 0 -31 4 -27 10 9 15
57 12 98 -5z m-335 -33 c3 -9 -2 -13 -14 -10 -9 1 -19 9 -22 16 -3 9 2 13 14
10 9 -1 19 -9 22 -16z m122 -7 c0 -8 -6 -15 -14 -15 -17 0 -28 14 -19 24 12
12 33 6 33 -9z m75 -6 c-8 -12 -35 -12 -35 0 0 11 22 20 33 14 4 -2 5 -9 2
-14z m360 1 c-3 -5 -10 -10 -16 -10 -5 0 -9 5 -9 10 0 6 7 10 16 10 8 0 12 -4
9 -10z m-295 -30 c0 -5 -9 -10 -21 -10 -11 0 -17 5 -14 10 3 6 13 10 21 10 8
0 14 -4 14 -10z m90 0 c0 -5 -5 -10 -11 -10 -5 0 -7 5 -4 10 3 6 8 10 11 10 2
0 4 -4 4 -10z m-200 -19 c0 -12 -20 -25 -27 -18 -7 7 6 27 18 27 5 0 9 -4 9
-9z m-60 -21 c0 -5 -6 -10 -14 -10 -8 0 -18 5 -21 10 -3 6 3 10 14 10 12 0 21
-4 21 -10z m-62 -19 c17 -7 32 -17 32 -22 0 -15 -47 -10 -54 6 -3 8 -13 15
-21 15 -9 0 -13 5 -10 11 4 5 10 8 13 6 4 -2 22 -9 40 -16z m317 9 c3 -5 -7
-12 -22 -15 -15 -4 -38 -11 -51 -16 -34 -13 -53 -11 -68 9 -7 9 -14 19 -14 22
0 10 149 9 155 0z m-167 -42 c-7 -19 -38 -22 -38 -4 0 10 9 16 21 16 12 0 19
-5 17 -12z m557 2 c-3 -5 -11 -10 -16 -10 -6 0 -7 5 -4 10 3 6 11 10 16 10 6
0 7 -4 4 -10z m-747 -37 c2 -8 -5 -13 -17 -13 -12 0 -21 6 -21 16 0 18 31 15
38 -3z m322 13 c0 -11 -19 -15 -25 -6 -3 5 1 10 9 10 9 0 16 -2 16 -4z m64
-15 c3 -5 -4 -21 -15 -36 -28 -35 -48 -18 -24 19 18 27 30 32 39 17z m136 -3
c0 -4 -7 -8 -15 -8 -8 0 -15 4 -15 8 0 5 7 9 15 9 8 0 15 -4 15 -9z m90 3 c0
-12 -29 -23 -42 -15 -6 4 -5 10 3 15 18 11 39 11 39 0z m627 -35 c-3 -7 -1
-19 4 -25 5 -6 2 -5 -7 3 -9 8 -13 19 -10 25 10 16 19 14 13 -3z m-391 -51
c-26 -20 -41 -7 -20 16 13 14 21 16 28 9 8 -8 6 -15 -8 -25z m-634 8 c9 -10
19 -28 22 -40 7 -21 4 -23 -29 -23 -41 0 -53 19 -37 56 14 29 24 30 44 7z
m-205 -25 c-19 -12 -37 -9 -37 6 0 17 32 26 42 12 4 -6 2 -14 -5 -18z m523 12
c0 -14 -48 -35 -58 -26 -8 9 26 36 45 36 7 0 13 -5 13 -10z m76 -16 c-11 -7
-22 -11 -25 -8 -3 3 3 12 13 20 11 7 22 11 25 8 3 -3 -3 -12 -13 -20z m144 15
c0 -7 8 -18 17 -25 16 -11 15 -13 -10 -19 -38 -10 -67 16 -47 39 15 19 40 21
40 5z m-326 -48 c-8 -8 -19 -11 -31 -6 -17 7 -17 8 2 15 19 8 19 9 -2 9 -13 1
-23 5 -23 10 0 16 34 17 51 1 13 -12 14 -18 3 -29z m246 41 c0 -14 -69 -76
-77 -69 -3 4 9 23 27 42 33 34 50 43 50 27z m610 -49 c9 -27 21 -57 25 -68 6
-16 1 -13 -23 9 -27 25 -32 37 -32 75 0 52 7 49 30 -16z m-463 -18 c-7 -17
-47 -21 -47 -5 0 11 41 31 49 24 2 -2 1 -10 -2 -19z m-1067 5 c0 -5 -5 -10
-11 -10 -5 0 -7 5 -4 10 3 6 8 10 11 10 2 0 4 -4 4 -10z m764 -8 c2 -4 -5 -9
-17 -9 -17 -2 -19 0 -7 7 18 12 18 12 24 2z m-104 -7 c0 -13 -102 -105 -111
-99 -6 4 -6 11 2 21 11 13 9 14 -19 10 -18 -3 -32 -3 -32 -1 0 3 25 16 55 30
30 14 57 30 60 35 6 9 45 13 45 4z m-437 -42 c-13 -34 -53 -51 -53 -23 0 7 43
37 57 40 1 0 -1 -8 -4 -17z m590 -1 c16 -8 -28 -31 -60 -32 -17 0 -35 -4 -38
-10 -6 -10 -84 -35 -97 -32 -5 1 -8 -2 -8 -8 0 -8 -51 -40 -65 -40 -17 0 1 23
41 49 25 17 43 27 40 23 -3 -5 1 -9 8 -9 8 0 12 6 9 13 -8 21 66 54 117 52 25
-1 49 -3 53 -6z m497 -26 c0 -51 -11 -96 -24 -96 -11 0 -11 55 0 108 7 34 24
26 24 -12z m-890 10 c0 -16 -37 -29 -45 -16 -3 5 3 13 12 19 25 14 33 13 33
-3z m595 -26 c-3 -5 -11 -10 -16 -10 -6 0 -7 5 -4 10 3 6 11 10 16 10 6 0 7
-4 4 -10z m-259 -44 c-15 -14 -26 -30 -26 -35 0 -5 -9 -9 -19 -8 -12 1 -19 8
-18 19 1 10 7 16 14 14 7 -3 10 1 6 10 -3 9 6 19 28 28 42 18 48 6 15 -28z
m-506 26 c0 -9 -74 -72 -84 -72 -18 0 0 29 31 53 37 28 53 33 53 19z m-175
-26 c37 -16 45 -33 21 -42 -20 -8 -86 25 -86 42 0 18 22 18 65 0z m325 -5 c0
-11 -39 -25 -47 -18 -3 3 -2 10 2 16 8 13 45 15 45 2z m430 0 c0 -12 -20 -25
-27 -18 -7 7 6 27 18 27 5 0 9 -4 9 -9z m758 -24 c5 -24 -15 -21 -28 4 -10 18
-9 20 7 17 10 -2 19 -11 21 -21z m-598 4 c0 -13 -29 -35 -37 -28 -7 8 15 37
28 37 5 0 9 -4 9 -9z m70 -15 c0 -16 -28 -42 -36 -33 -8 7 14 47 26 47 6 0 10
-6 10 -14z m325 -16 c-3 -5 -1 -10 5 -10 6 0 8 -5 4 -11 -4 -7 -10 -7 -16 -1
-9 9 -3 32 8 32 3 0 2 -4 -1 -10z m-737 -46 c2 -16 -12 -35 -53 -70 -30 -27
-65 -64 -76 -82 -17 -26 -24 -30 -35 -21 -17 14 -9 75 14 101 16 20 36 14 28
-8 -10 -26 11 -14 48 26 20 22 36 49 36 61 0 28 34 21 38 -7z m759 -6 c-3 -8
-6 -5 -6 6 -1 11 2 17 5 13 3 -3 4 -12 1 -19z m-1272 -9 c-4 -5 -13 -9 -22 -9
-13 0 -13 3 -3 15 13 15 35 11 25 -6z m715 2 c0 -15 -29 -33 -41 -25 -9 5 -7
11 6 21 22 15 35 17 35 4z m-290 -16 c-7 -8 -17 -15 -22 -15 -6 0 -5 7 2 15 7
8 17 15 22 15 6 0 5 -7 -2 -15z m-443 -51 c5 -14 -64 -50 -74 -40 -10 10 45
58 60 53 6 -2 12 -8 14 -13z m843 7 c0 -12 -20 -25 -27 -18 -7 7 6 27 18 27 5
0 9 -4 9 -9z m-630 -10 c0 -5 -7 -14 -15 -21 -12 -10 -15 -10 -15 2 0 8 3 18
7 21 9 10 23 9 23 -2z m-371 -54 c-23 -22 -34 -26 -37 -17 -3 8 10 27 29 43
23 22 34 26 37 17 3 -8 -10 -27 -29 -43z m751 30 c0 -7 -20 -27 -45 -45 -39
-28 -61 -54 -110 -137 -13 -22 -49 -10 -39 14 3 9 7 21 7 28 0 7 4 10 8 8 3
-3 12 2 19 10 7 8 17 15 23 15 5 0 20 11 33 25 13 14 21 25 18 25 -2 0 10 16
27 35 33 36 59 45 59 22z m480 -7 c0 -11 -4 -20 -10 -20 -5 0 -10 9 -10 20 0
11 5 20 10 20 6 0 10 -9 10 -20z m147 -22 c3 -24 6 -45 6 -48 -1 -14 31 -46
79 -80 87 -60 144 -153 108 -175 -15 -9 -88 37 -134 85 -22 22 -37 40 -33 40
8 0 44 -29 66 -52 21 -24 31 -23 31 4 0 12 -23 45 -55 79 -30 32 -55 55 -55
53 0 -3 -8 2 -17 11 -11 11 -17 36 -18 71 -3 64 12 72 22 12z m-1133 7 c-7
-18 -34 -28 -34 -12 0 17 21 38 31 31 5 -2 6 -11 3 -19z m1226 -11 c0 -16 -16
-19 -25 -4 -8 13 4 32 16 25 5 -4 9 -13 9 -21z m-955 -70 c-11 -8 -19 -16 -17
-17 10 -7 -13 -37 -29 -37 -27 0 -24 14 12 55 24 26 35 33 43 25 8 -8 6 -15
-9 -26z m1049 9 c59 -29 87 -63 68 -86 -13 -15 5 -57 40 -94 12 -13 16 -23 10
-23 -29 0 -5 -33 93 -131 90 -89 108 -113 131 -171 36 -90 72 -126 135 -134
58 -8 77 -27 96 -96 8 -29 16 -60 18 -68 18 -63 25 -105 21 -117 -3 -7 -1 -13
4 -13 6 0 19 -9 29 -19 16 -16 19 -28 14 -58 -3 -21 -9 -41 -12 -46 -11 -11
-81 63 -81 85 0 12 4 16 11 12 23 -14 26 20 8 80 -10 33 -23 80 -29 103 -9 38
-14 43 -48 49 -20 4 -50 16 -65 26 -42 30 -61 17 -54 -35 8 -51 24 -107 37
-127 8 -13 12 -11 26 9 l17 24 13 -24 c18 -32 17 -49 -2 -49 -12 0 -15 -6 -10
-25 5 -20 2 -27 -16 -34 -13 -5 -26 -7 -30 -4 -4 2 -16 -1 -27 -6 -22 -12 -31
-2 -106 102 -36 51 -43 57 -75 55 -48 -2 -69 11 -134 84 -58 66 -64 81 -22 53
31 -20 35 -6 6 20 -11 10 -20 24 -20 32 0 9 -11 5 -34 -13 l-34 -28 26 -35
c15 -20 31 -39 37 -43 5 -4 7 -8 3 -8 -4 0 6 -13 24 -30 17 -16 29 -30 26 -30
-3 0 9 -17 28 -37 38 -42 37 -54 -2 -28 -21 13 -24 19 -13 26 8 5 11 9 7 10
-5 1 -11 2 -15 3 -5 1 -30 24 -58 50 -27 27 -43 45 -35 41 8 -4 5 3 -8 16 -40
43 -92 111 -92 121 0 5 9 12 20 15 13 3 20 14 20 29 0 26 -16 41 -23 22 -6
-13 -14 -4 -134 133 -57 66 -81 84 -69 53 3 -9 9 -33 12 -55 5 -31 4 -39 -9
-39 -18 0 -47 37 -47 61 0 9 -22 47 -50 84 -55 74 -70 125 -20 65 16 -19 30
-38 30 -41 0 -4 7 -9 15 -13 10 -3 -1 26 -30 80 -65 124 -59 169 17 130 19
-10 30 -11 34 -4 4 7 17 -1 33 -20 14 -17 64 -65 111 -106 46 -41 94 -92 105
-113 16 -28 31 -40 58 -46 40 -10 87 -57 87 -88 0 -23 -1 -23 -45 -5 -50 21
-47 -3 5 -45 22 -18 43 -44 47 -58 10 -47 61 -126 92 -144 17 -10 31 -14 31
-8 0 5 -21 40 -46 77 -40 59 -46 74 -48 128 -2 37 -11 77 -23 101 -11 22 -23
59 -27 82 -5 35 -2 46 20 72 l26 31 -38 46 c-79 93 -80 94 -64 104 12 7 10 14
-15 40 -27 28 -55 40 -55 22 0 -4 5 -13 12 -20 9 -9 4 -9 -22 -2 -19 5 -38 14
-43 19 -13 13 0 31 23 31 10 0 22 5 25 10 9 15 19 13 79 -17z m-1538 -10 c-10
-10 -19 5 -10 18 6 11 8 11 12 0 2 -7 1 -15 -2 -18z m1174 -10 c0 -7 -7 -13
-15 -13 -15 0 -21 31 -8 43 8 8 23 -12 23 -30z m-770 13 c0 -18 -17 -29 -30
-21 -8 5 -7 11 1 21 15 18 29 18 29 0z m-159 -49 c-8 -8 -11 -7 -11 4 0 20 13
34 18 19 3 -7 -1 -17 -7 -23z m-151 4 c0 -9 -38 -26 -82 -37 -17 -4 -28 -2
-28 5 0 6 12 17 28 25 30 17 82 21 82 7z m1239 -31 c8 0 11 -6 7 -16 -4 -12
19 -41 78 -99 46 -46 93 -86 104 -89 23 -8 36 -32 21 -42 -5 -3 -21 1 -34 10
-30 20 -212 202 -232 232 -21 33 -6 51 21 25 12 -12 28 -21 35 -21z m-614 -37
c-1 -21 -3 -46 -4 -56 -2 -27 -21 -10 -21 18 0 24 16 75 24 75 2 0 2 -17 1
-37z m211 -38 c12 -68 15 -80 48 -157 9 -22 12 -38 6 -38 -5 0 -10 8 -10 19 0
10 -7 24 -15 31 -12 10 -16 9 -21 -4 -13 -35 -24 -13 -25 52 l-2 67 -10 -74
c-13 -95 -2 -146 32 -146 22 0 24 -4 26 -65 1 -36 5 -72 9 -81 13 -30 -37 -15
-56 17 -22 36 -22 44 -3 44 22 0 18 37 -6 61 -36 36 -38 58 -30 317 1 28 4 33
23 30 19 -3 24 -13 34 -73z m174 -50 c-6 -90 -2 -114 33 -193 20 -46 52 -101
70 -121 36 -40 73 -131 63 -156 -7 -20 -25 -19 -33 3 -3 9 -17 32 -31 50 -13
19 -25 46 -26 61 -1 15 -8 38 -17 52 -14 20 -19 22 -32 11 -13 -11 -18 -9 -31
10 -9 12 -16 32 -16 43 0 11 -11 42 -25 69 -19 37 -22 52 -14 62 8 10 4 33
-15 90 -20 57 -24 80 -16 88 8 8 15 6 26 -8 8 -11 14 -26 14 -33 0 -7 5 -13
11 -13 8 0 9 15 5 45 -11 68 5 78 22 15 7 -30 13 -64 12 -75z m613 84 c19 -24
8 -49 -22 -49 -15 0 -61 59 -61 79 0 16 64 -7 83 -30z m-947 -41 c-2 -10 0
-20 5 -23 5 -4 8 -16 8 -28 -1 -12 2 -32 5 -45 3 -13 1 -20 -5 -17 -5 4 -7 11
-4 16 4 5 1 9 -4 9 -6 0 -11 7 -11 15 0 8 -4 15 -10 15 -5 0 -10 -13 -10 -30
0 -16 -4 -30 -8 -30 -13 0 -11 41 5 120 15 69 17 73 25 45 4 -16 6 -38 4 -47z
m-566 50 c-1 -19 -29 -53 -37 -45 -8 9 14 57 27 57 5 0 10 -6 10 -12z m424 -4
c3 -8 2 -12 -4 -9 -6 3 -10 10 -10 16 0 14 7 11 14 -7z m-524 -3 c0 -21 -13
-41 -26 -41 -17 0 -17 5 -4 31 11 20 30 26 30 10z m300 -5 c0 -29 -20 -66 -36
-66 -12 0 -14 6 -9 33 4 17 9 35 12 40 8 13 33 7 33 -7z m438 -35 c1 -23 -3
-43 -10 -47 -8 -5 -9 -2 -5 9 3 10 2 17 -3 17 -11 0 -14 43 -3 53 13 14 18 6
21 -32z m-575 13 c3 -4 -1 -20 -9 -36 -20 -38 -41 -24 -23 15 12 27 20 32 32
21z m717 -43 c0 -11 3 -28 6 -38 5 -12 4 -15 -3 -8 -15 15 -25 65 -13 65 5 0
10 -9 10 -19z m-410 -39 c0 -21 -61 -142 -72 -142 -14 0 -9 29 12 70 11 22 20
52 20 68 0 16 3 32 7 35 9 10 33 -13 33 -31z m-390 -11 c0 -20 -20 -61 -30
-61 -13 0 -13 26 0 51 11 20 30 26 30 10z m100 -8 c0 -23 -17 -49 -26 -41 -9
10 4 58 16 58 6 0 10 -8 10 -17z m1480 -10 c0 4 21 -6 47 -21 39 -23 51 -37
65 -78 29 -80 23 -82 -50 -24 -46 37 -70 71 -64 93 1 4 -2 7 -7 7 -5 0 -11 9
-14 21 -4 16 -3 18 9 8 8 -6 14 -9 14 -6z m-1698 -58 c-6 -14 -16 -25 -22 -25
-13 0 -13 12 0 46 8 20 14 24 22 16 9 -9 9 -18 0 -37z m302 -24 c-8 -36 -30
-36 -26 0 4 39 12 53 22 43 6 -6 7 -25 4 -43z m362 -8 c-9 -33 -30 -24 -34 14
-2 24 1 32 15 35 21 4 27 -13 19 -49z m1303 21 c16 -20 19 -35 15 -72 -6 -46
4 -83 61 -220 19 -44 14 -68 -8 -38 -7 10 -24 46 -36 79 -54 144 -66 169 -83
178 -14 8 -38 64 -38 92 0 4 15 7 34 7 25 0 40 -7 55 -26z m-1806 0 c8 -8 -21
-64 -33 -64 -5 0 -15 -18 -21 -40 -15 -50 -31 -52 -27 -2 2 20 8 36 14 35 6
-1 17 16 24 37 12 37 28 49 43 34z m225 -21 c3 -49 -10 -123 -23 -123 -21 0
-23 21 -7 75 19 68 28 81 30 48z m132 -52 c0 -30 -11 -51 -26 -51 -14 0 -20
51 -7 63 13 14 33 6 33 -12z m467 -62 c7 -13 13 -42 13 -65 0 -26 6 -46 18
-56 29 -26 40 -29 38 -11 -2 30 22 24 33 -8 28 -81 7 -93 -67 -37 -42 32 -57
51 -57 69 -1 14 -9 36 -18 49 -22 31 -22 51 -1 43 14 -5 16 -1 12 21 -7 33 12
30 29 -5z m928 -39 c17 0 35 -38 35 -76 0 -13 -6 -24 -13 -24 -23 0 -74 64
-91 114 -21 66 -21 67 19 24 18 -21 41 -38 50 -38z m-1750 50 c10 -17 -6 -80
-21 -80 -15 0 -18 29 -8 68 7 23 19 29 29 12z m499 2 c8 -13 -9 -65 -22 -70
-7 -2 -12 5 -12 15 0 15 -2 16 -10 3 -13 -20 -12 -63 2 -97 9 -22 12 -24 15
-10 3 9 8 15 13 12 9 -5 4 -135 -5 -144 -6 -6 -45 30 -45 41 0 5 5 6 10 3 18
-11 11 28 -15 83 -29 63 -30 75 -10 92 8 7 12 17 8 23 -3 5 -1 7 5 3 6 -3 14
4 18 16 10 32 36 48 48 30z m1426 -24 c14 -15 20 -35 20 -69 0 -54 -20 -71
-42 -36 -13 20 -48 102 -48 111 0 4 22 12 42 15 4 0 16 -9 28 -21z m-1640 -14
c0 -32 -18 -66 -31 -59 -13 9 -11 59 3 73 19 19 28 14 28 -14z m-115 -44 c6
-29 25 -52 25 -31 0 6 5 11 11 11 15 0 7 -82 -8 -88 -7 -2 -18 9 -23 24 -6 15
-17 32 -25 38 -13 10 -19 34 -16 64 2 24 30 11 36 -18z m411 22 c19 -12 21
-56 3 -60 -14 -3 -39 34 -39 58 0 12 20 13 36 2z m1557 -20 c28 -31 48 -87 35
-100 -20 -20 -26 -14 -44 41 -9 28 -19 58 -22 65 -6 18 12 15 31 -6z m-2223
-51 c0 -61 -11 -101 -28 -101 -12 0 -14 11 -9 59 3 33 8 64 12 70 13 23 25 10
25 -28z m184 -17 c3 -9 6 -26 6 -38 0 -29 10 -39 27 -25 10 9 13 3 13 -35 0
-54 -14 -60 -30 -12 -6 19 -16 36 -21 38 -12 4 -29 74 -21 82 10 10 20 6 26
-10z m479 -52 c14 -21 33 -62 43 -91 16 -45 17 -53 4 -61 -17 -10 -31 7 -72
92 -31 64 -34 84 -15 91 6 3 13 6 13 6 1 1 13 -16 27 -37z m105 30 c8 8 14 4
22 -16 23 -62 -1 -76 -44 -25 -31 36 -34 54 -8 40 13 -7 22 -7 30 1z m1366
-44 c9 -12 16 -40 16 -61 0 -33 -2 -37 -14 -28 -22 18 -26 0 -9 -41 16 -39 39
-53 30 -18 -3 11 0 20 6 21 7 0 22 2 34 5 14 2 27 -3 35 -15 7 -10 27 -25 45
-35 45 -23 56 -47 48 -111 -5 -39 -2 -68 10 -105 9 -28 15 -54 12 -56 -3 -3
-27 10 -54 29 -48 34 -64 65 -30 59 9 -2 20 4 23 12 8 20 -45 150 -66 164 -16
10 -16 7 -8 -34 19 -87 -11 -73 -88 43 -39 59 -59 82 -62 71 -6 -28 -30 -21
-52 15 -28 45 -25 65 16 103 35 31 38 32 65 19 15 -8 35 -25 43 -37z m-1770
20 c9 -35 7 -68 -4 -68 -12 0 -30 42 -30 71 0 26 26 24 34 -3z m601 -69 c28
-29 43 -48 35 -43 -23 13 -50 15 -50 4 0 -17 -20 -11 -56 17 -24 18 -32 29
-25 36 7 7 17 5 31 -8 11 -10 22 -16 25 -13 3 3 -1 11 -10 18 -16 13 -21 40
-7 40 4 0 30 -23 57 -51z m270 11 c-3 -5 -1 -11 5 -15 5 -3 10 -19 10 -35 0
-39 55 -133 145 -250 19 -25 46 -62 60 -82 13 -20 41 -49 61 -65 45 -35 64
-53 87 -85 10 -14 36 -31 58 -37 26 -8 43 -20 46 -32 3 -10 9 -19 14 -19 17 0
50 -45 45 -62 -2 -10 1 -18 6 -18 6 0 5 -6 -2 -15 -11 -14 -15 -12 -30 12 -26
42 -54 64 -90 68 -18 2 -56 18 -86 35 -29 16 -76 39 -104 49 -50 19 -50 19
-61 -1 -9 -16 -7 -23 11 -35 60 -42 75 -60 61 -76 -11 -14 -17 -14 -59 4 -26
11 -54 27 -62 36 -13 13 -12 14 19 8 l34 -7 -29 36 c-20 25 -44 41 -76 50 -62
19 -86 33 -128 72 -19 18 -48 44 -65 57 -36 30 -28 46 10 21 l26 -17 -12 29
c-7 16 -19 36 -26 45 -18 22 -17 42 3 35 13 -5 15 -2 11 14 -3 11 -1 20 4 20
17 0 40 -48 49 -103 8 -49 34 -117 44 -117 3 0 12 -3 22 -7 16 -6 15 -3 -4 21
-40 52 -10 49 44 -5 29 -29 56 -50 59 -48 3 3 -13 31 -36 63 -44 62 -45 84 -2
45 28 -25 28 -25 5 30 -5 14 8 13 66 -5 l24 -7 -27 54 c-15 30 -49 88 -76 129
-58 91 -76 133 -79 180 -3 48 -2 50 15 44 8 -4 13 -10 10 -14z m-1166 -52 c1
-40 -17 -35 -25 6 -7 41 5 71 17 40 4 -10 8 -31 8 -46z m2343 6 c30 -53 36
-94 14 -94 -14 0 -78 135 -68 144 12 13 28 -2 54 -50z m-2093 -16 c1 -38 -14
-35 -28 3 -8 24 -8 36 1 46 10 13 13 12 19 -4 4 -10 8 -30 8 -45z m326 -11
c16 -32 20 -47 12 -47 -21 0 -59 41 -53 57 3 8 6 22 6 30 0 21 5 16 35 -40z
m-229 -30 c11 -30 11 -37 0 -37 -14 0 -36 41 -36 66 0 28 23 9 36 -29z m472
-21 c20 -51 4 -69 -35 -39 -16 11 -30 28 -31 37 -3 15 -1 16 18 6 21 -11 22
-11 16 15 -10 41 14 27 32 -19z m112 3 c28 -54 21 -75 -17 -55 -33 16 -69 54
-60 62 3 3 18 -2 33 -12 27 -18 27 -18 15 3 -14 27 -14 43 -1 43 5 0 19 -18
30 -41z m100 -11 c0 -4 -6 -8 -14 -8 -16 0 -48 45 -39 54 7 7 53 -33 53 -46z
m-902 -26 c2 -27 8 -42 16 -42 13 0 26 -29 26 -57 0 -23 -19 -14 -35 17 -9 17
-13 30 -11 30 3 0 -2 16 -10 35 -17 42 -18 68 -1 63 6 -3 13 -23 15 -46z
m2187 -43 c-8 -12 41 -53 77 -64 43 -15 72 -66 56 -101 -13 -29 9 -78 50 -108
25 -19 25 -19 20 2 -11 42 11 21 58 -54 26 -41 64 -93 86 -115 21 -21 36 -39
33 -39 -3 0 0 -6 7 -14 7 -8 16 -12 19 -10 4 2 27 -19 53 -46 25 -27 46 -46
46 -43 0 4 11 -8 25 -27 30 -41 31 -44 6 -28 -11 7 -17 16 -15 20 3 4 0 8 -7
8 -6 0 -110 98 -230 218 -186 185 -221 224 -235 264 -8 26 -20 50 -25 53 -5 4
-9 15 -9 25 0 10 -6 25 -14 33 -16 15 -46 83 -46 101 0 6 11 -7 25 -28 13 -22
22 -43 20 -47z m-2335 18 c0 -20 -25 1 -28 24 -2 23 -2 23 13 5 8 -11 15 -24
15 -29z m518 7 c26 -59 37 -78 51 -82 8 -3 11 0 7 6 -3 6 -2 13 3 16 4 3 21
-22 37 -57 20 -44 29 -56 32 -42 7 43 14 51 22 25 12 -37 11 -80 0 -80 -6 0
-35 24 -66 53 -31 28 -75 71 -100 93 -44 42 -58 72 -28 60 13 -5 15 -1 10 20
-9 36 15 27 32 -12z m2009 -11 c39 -50 79 -120 72 -128 -15 -14 -37 11 -77 85
-46 86 -44 104 5 43z m-1443 -12 c43 -45 12 -52 -32 -7 -32 31 -34 36 -16 36
11 0 33 -13 48 -29z m-821 -18 c7 -33 -9 -55 -23 -33 -14 23 -12 60 4 60 7 0
16 -12 19 -27z m-294 -45 c1 -10 -3 -18 -9 -18 -5 0 -10 17 -9 38 0 30 2 33 9
17 5 -11 9 -28 9 -37z m951 -51 c0 -27 -39 -18 -63 15 -21 28 -17 52 5 30 13
-13 29 -16 27 -4 -1 4 -1 12 0 17 3 15 30 -38 31 -58z m1427 -18 c25 -50 29
-72 11 -67 -13 4 -41 54 -53 97 -12 40 18 20 42 -30z m-2137 -19 c0 -33 22
-78 39 -83 16 -4 36 -64 25 -76 -17 -19 -98 82 -90 112 2 11 0 30 -6 42 -6 13
-7 32 -4 42 7 17 8 17 22 -1 8 -11 14 -27 14 -36z m1914 11 c25 -25 35 -41 27
-45 -7 -5 -10 -2 -9 6 2 7 -2 12 -9 11 -6 -1 -17 4 -23 12 -7 8 -9 15 -5 15 4
0 -3 9 -16 20 -13 10 -19 19 -14 19 6 0 27 -17 49 -38z m-1832 -26 c7 -34 -19
-34 -32 1 -15 38 -13 46 9 35 10 -6 21 -22 23 -36z m-161 -2 c6 -17 6 -30 0
-36 -7 -7 -14 -1 -21 17 -13 34 -13 46 0 46 6 0 15 -12 21 -27z m269 -14 c0
-38 -24 -35 -28 4 -2 19 1 27 12 27 11 0 16 -10 16 -31z m85 11 c4 -6 11 -8
16 -5 5 4 14 -5 21 -20 9 -20 9 -28 -1 -38 -10 -9 -17 -6 -37 16 -24 28 -32
57 -15 57 6 0 13 -5 16 -10z m546 -65 c54 -36 101 -70 104 -75 8 -12 -44 9
-66 27 -8 7 -20 13 -24 13 -5 0 -24 15 -43 33 l-34 32 7 -37 c7 -36 6 -38 -19
-38 -32 0 -76 27 -76 46 0 20 14 17 35 -6 27 -29 38 -24 20 10 -16 30 -20 60
-8 60 3 0 50 -29 104 -65z m-390 -40 c5 -24 -26 -33 -35 -9 -3 9 -3 33 0 53
l7 36 13 -30 c6 -16 14 -39 15 -50z m1576 29 c21 -25 43 -51 48 -58 51 -59 41
-62 -15 -4 -22 23 -40 48 -40 56 0 7 -5 10 -10 7 -6 -3 -13 2 -17 12 -4 10
-11 21 -17 25 -8 5 -7 8 1 8 6 0 29 -21 50 -46z m433 -3 c27 -54 36 -111 17
-111 -8 0 -20 14 -27 30 -7 17 -21 37 -31 44 -10 7 -25 26 -34 42 -14 28 -14
29 8 35 33 8 46 1 67 -40z m-2615 7 c7 -18 11 -36 9 -40 -10 -15 -22 -8 -28
16 -3 13 -9 31 -12 40 -12 31 17 16 31 -16z m2455 -146 c0 -2 -4 0 -10 3 -5 3
-10 1 -10 -4 0 -6 6 -11 13 -11 16 0 77 -64 77 -80 0 -5 4 -9 8 -7 5 1 27 -20
50 -48 23 -27 58 -66 78 -86 21 -21 32 -39 26 -43 -6 -3 -12 -2 -14 4 -1 5
-37 45 -78 87 -42 43 -121 128 -175 188 -55 61 -110 120 -122 133 -13 13 -23
28 -23 33 0 6 40 -29 90 -78 49 -48 90 -89 90 -91z m-596 96 c-3 -5 -12 -4
-20 3 -8 6 -12 14 -9 17 3 3 -1 12 -7 21 -7 9 0 5 14 -8 15 -13 25 -28 22 -33z
m-36 -19 c35 -33 66 -58 69 -55 3 3 0 12 -6 20 -9 11 -9 16 1 22 7 4 10 4 6
-1 -4 -4 -3 -14 3 -21 13 -15 4 -33 -14 -30 -28 5 -84 35 -117 62 -33 26 -34
31 -21 47 9 9 16 17 16 17 0 0 29 -27 63 -61z m-1670 26 c15 -33 15 -45 1 -45
-16 0 -38 31 -39 53 0 26 25 21 38 -8z m197 -15 c21 -41 -1 -52 -31 -15 -17
22 -20 33 -12 42 13 16 24 9 43 -27z m338 22 c3 8 9 1 16 -16 19 -48 -4 -58
-40 -18 -35 39 -38 58 -5 37 19 -13 25 -13 29 -3z m1397 -7 c7 -8 9 -15 5 -15
-3 0 8 -12 25 -26 17 -15 29 -33 26 -40 -3 -8 1 -14 8 -14 8 0 21 -11 29 -24
9 -13 24 -31 34 -41 10 -10 18 -23 18 -29 0 -6 5 -11 10 -11 6 0 39 -28 75
-62 88 -83 116 -104 159 -119 30 -10 39 -10 52 2 14 12 19 11 39 -11 13 -14
43 -31 67 -37 25 -6 40 -15 36 -21 -3 -5 -1 -7 5 -3 12 7 104 -79 115 -107 11
-28 -27 -3 -95 62 -32 32 -63 54 -69 50 -16 -10 -3 -28 70 -104 35 -36 59 -65
55 -65 -5 0 7 -10 26 -21 35 -22 120 -93 265 -224 44 -40 107 -97 140 -126 33
-30 94 -84 135 -121 41 -37 84 -73 94 -81 12 -9 15 -16 8 -21 -6 -3 -16 3 -22
15 -7 11 -14 18 -18 14 -3 -3 -18 6 -32 20 -14 14 -77 64 -140 112 -63 47
-131 101 -150 120 -19 19 -86 71 -147 116 -62 45 -113 88 -113 96 0 11 3 11
15 1 28 -23 25 -4 -4 27 -16 18 -27 34 -24 37 2 2 -4 7 -14 10 -10 4 -49 38
-88 77 -45 46 -89 80 -124 95 -58 27 -75 26 -42 -2 11 -10 18 -21 15 -26 -3
-5 10 -15 28 -22 35 -15 82 -59 72 -68 -3 -3 -16 4 -28 16 -13 11 -37 32 -54
45 -18 13 -29 27 -26 32 3 5 0 9 -7 9 -7 0 -43 29 -80 65 -37 36 -72 65 -78
65 -9 0 -88 98 -94 117 -1 5 -16 21 -34 36 -18 16 -35 37 -38 48 -4 11 -11 17
-16 14 -5 -4 -9 0 -9 7 0 7 -9 19 -20 26 -12 7 -18 17 -15 22 3 6 2 10 -4 10
-16 0 -62 54 -57 67 3 6 -3 14 -12 16 -15 4 -15 5 -1 6 9 0 22 -6 29 -14z
m-392 -72 c7 -7 17 -13 20 -13 14 0 62 -51 57 -60 -7 -12 -185 111 -185 127 0
14 79 -26 108 -54z m182 47 c0 -5 -5 -10 -11 -10 -5 0 -7 5 -4 10 3 6 8 10 11
10 2 0 4 -4 4 -10z m936 -108 c19 -29 34 -59 34 -68 0 -8 14 -35 30 -59 58
-84 31 -90 -33 -7 -59 76 -94 144 -66 126 14 -8 -7 33 -29 59 -25 28 -35 19
-13 -12 12 -16 17 -31 11 -33 -7 -2 -7 -14 0 -37 16 -57 1 -54 -46 8 -46 62
-51 71 -33 71 14 0 33 20 42 44 7 18 10 17 38 -10 17 -16 46 -53 65 -82z
m-2758 45 c14 -39 15 -57 4 -57 -8 0 -32 58 -32 78 0 24 16 11 28 -21z m864
-25 c102 -124 147 -185 142 -193 -13 -22 -57 -8 -91 29 -78 85 -143 162 -143
172 0 21 17 8 60 -46 33 -42 46 -52 48 -39 2 9 -10 31 -26 49 -27 29 -52 67
-52 80 0 16 20 0 62 -52z m-645 4 c28 -57 7 -71 -31 -21 -34 44 -32 59 5 64 3
1 15 -19 26 -43z m160 18 c20 -20 23 -28 14 -37 -13 -12 -28 1 -52 46 -15 26
8 21 38 -9z m157 -6 c12 -30 39 -105 53 -150 3 -11 0 -18 -9 -18 -20 0 -89 60
-82 71 4 6 11 6 20 -2 11 -9 14 -8 14 2 0 7 -19 32 -42 56 -45 46 -46 69 -2
34 31 -24 40 -22 25 7 -14 26 -14 32 -1 32 6 0 16 -15 24 -32z m-438 -44 l6
-39 -26 28 c-25 27 -33 57 -19 71 12 12 34 -20 39 -60z m1909 55 c11 -16 1
-19 -13 -3 -7 8 -8 14 -3 14 5 0 13 -5 16 -11z m-1279 -75 c49 -121 38 -153
-29 -86 -40 41 -46 73 -7 37 11 -10 23 -15 26 -12 4 3 -18 30 -47 58 -52 50
-55 74 -8 48 19 -9 21 -9 16 4 -7 19 3 31 16 18 5 -5 20 -35 33 -67z m1149 56
c4 -6 10 -8 14 -5 5 2 26 -11 47 -29 64 -55 115 -86 141 -86 14 0 21 4 18 10
-3 6 -1 10 4 10 14 0 131 -89 131 -99 0 -5 30 -41 66 -80 36 -39 62 -71 57
-71 -4 -1 5 -8 20 -16 15 -8 26 -18 23 -22 -3 -4 9 -17 25 -27 16 -11 29 -25
29 -32 0 -6 -15 3 -32 20 -18 16 -32 34 -30 39 1 4 -6 8 -15 9 -10 0 -54 41
-98 89 -84 93 -86 94 -150 104 l-40 7 41 -38 c186 -175 443 -400 472 -415 49
-25 66 -24 50 1 -7 11 -14 18 -18 16 -3 -1 -11 3 -18 11 -8 9 -9 14 -2 14 15
0 60 -50 60 -66 0 -8 4 -14 10 -14 5 0 7 7 3 16 -4 12 -2 15 8 12 8 -3 13 -14
11 -26 -2 -14 2 -22 12 -22 10 0 13 -6 10 -17 -5 -15 -4 -16 5 -3 8 11 7 18
-6 28 -9 6 -12 12 -7 12 5 0 25 -15 44 -32 19 -18 37 -33 40 -33 21 -5 58 -30
54 -36 -3 -5 2 -9 10 -9 9 0 16 -4 16 -10 0 -5 7 -10 15 -10 8 0 14 -5 12 -12
-1 -6 7 -14 18 -16 11 -2 26 -11 33 -20 6 -9 12 -12 12 -6 0 5 4 5 8 -1 4 -6
25 -24 47 -40 44 -33 105 -91 105 -101 0 -3 -17 7 -37 23 -21 16 -57 42 -80
57 -24 16 -43 33 -43 37 0 5 -11 11 -25 15 -14 3 -30 15 -36 25 -5 11 -14 17
-19 14 -5 -3 -11 -1 -15 5 -3 5 -11 10 -16 10 -6 0 -8 -4 -4 -9 3 -5 0 -13 -6
-17 -7 -4 -10 -3 -7 2 8 12 -18 35 -28 26 -5 -4 -3 0 3 8 9 12 7 15 -15 17
-14 0 -34 12 -44 25 -22 29 -23 42 0 33 14 -5 15 -4 5 6 -10 10 -16 10 -25 1
-10 -10 -17 -6 -35 14 -13 15 -23 23 -23 18 0 -5 -4 -3 -9 5 -5 7 -25 15 -44
17 -54 5 -83 24 -187 121 -52 49 -120 111 -150 138 -30 26 -94 85 -142 131
-161 153 -209 195 -221 191 -6 -2 -20 7 -30 20 -16 20 -17 26 -5 41 12 15 11
16 -4 3 -17 -12 -23 -8 -19 13 1 5 -5 6 -14 2 -9 -3 -13 -2 -10 4 8 13 22 13
30 0z m430 -69 c-3 -3 4 -10 16 -16 20 -11 20 -12 3 -19 -10 -4 -15 -4 -12 0
4 3 -7 18 -23 31 -16 14 -27 28 -24 31 3 3 -3 15 -12 26 -10 12 -1 6 20 -13
20 -19 34 -37 32 -40z m-1165 27 c0 -5 5 -6 10 -3 6 3 10 1 10 -4 0 -6 4 -11
9 -11 9 0 93 -52 114 -70 4 -4 -2 -6 -13 -5 -12 1 -26 8 -31 16 -5 8 -9 11 -9
7 0 -9 -114 62 -118 74 -2 4 -10 8 -18 8 -9 0 -13 4 -9 10 7 11 55 -8 55 -22z
m-966 -22 c3 -14 3 -32 0 -40 -3 -9 4 -48 17 -86 12 -38 19 -73 16 -77 -12
-12 -49 33 -53 64 -2 16 -7 41 -13 54 -8 22 -6 62 4 97 7 20 22 14 29 -12z
m1598 -6 c15 -7 25 -16 23 -20 -2 -4 2 -7 10 -7 8 0 15 5 16 11 0 6 4 2 9 -9
5 -11 9 -14 9 -7 1 19 46 -14 105 -78 89 -97 274 -276 330 -320 18 -14 19 -14
6 10 -15 29 -45 60 -58 60 -10 0 -42 44 -42 56 0 4 9 -1 20 -11 11 -10 17 -22
14 -26 -3 -5 2 -9 11 -9 9 0 77 -60 151 -133 147 -145 141 -139 232 -198 34
-23 62 -44 62 -48 0 -22 -17 -17 -54 13 -23 18 -77 56 -121 84 -44 29 -84 55
-90 60 -57 46 -240 205 -276 239 -25 25 -53 45 -62 47 -21 3 -58 36 -52 47 3
4 -3 10 -13 13 -21 7 -107 102 -137 152 -25 41 -28 42 -48 25 -15 -12 -22 -9
-56 20 -56 48 -52 60 11 29z m-1458 -29 c5 -17 6 -34 2 -38 -6 -6 -76 55 -76
66 0 4 15 6 32 5 28 -1 34 -6 42 -33z m954 -107 c114 -74 110 -80 -13 -21 -69
33 -185 113 -185 128 0 11 84 -35 198 -107z m196 46 c29 -33 36 -48 36 -83 0
-44 17 -79 82 -167 21 -27 33 -50 26 -50 -6 0 -36 14 -65 30 -30 17 -58 28
-64 25 -14 -9 -138 51 -145 69 -3 9 -11 13 -17 9 -6 -3 -7 -1 -3 5 4 7 2 12
-5 12 -7 0 -10 3 -7 6 3 3 36 -8 72 -25 36 -16 66 -25 66 -19 0 5 7 8 15 4 28
-10 15 20 -25 59 -43 42 -41 69 4 40 39 -26 32 -1 -14 49 -37 40 -46 71 -12
43 13 -10 14 -9 3 11 -20 38 12 27 53 -18z m-1014 -67 c0 -22 -16 -22 -48 0
-30 21 -32 28 -23 87 2 9 70 -75 71 -87z m-407 14 c20 -48 21 -61 7 -52 -10 6
-40 70 -40 86 0 22 17 5 33 -34z m584 -34 c2 3 0 14 -6 26 -21 38 7 31 33 -9
15 -24 31 -37 39 -34 10 3 22 -12 36 -47 32 -74 12 -82 -50 -18 -30 31 -56 49
-71 49 -25 0 -98 45 -98 60 0 14 14 12 29 -2 10 -11 11 -7 5 17 l-7 30 42 -38
c24 -21 45 -36 48 -34z m2281 22 c-3 -3 -9 2 -12 12 -6 14 -5 15 5 6 7 -7 10
-15 7 -18z m-1755 -18 c9 -8 17 -20 17 -27 0 -10 -3 -10 -15 0 -25 20 -26 7
-5 -35 22 -44 25 -61 10 -70 -15 -9 -54 18 -86 60 -34 45 -24 58 16 20 34 -32
37 -28 14 16 -8 16 -12 39 -9 49 7 21 17 18 58 -13z m606 -32 c45 -54 42 -81
-6 -47 -48 34 -76 70 -69 87 9 25 30 14 75 -40z m-1406 -7 c27 -45 32 -50 35
-30 5 30 14 28 35 -8 10 -16 27 -35 38 -41 19 -9 20 -8 14 10 -11 36 13 23 41
-20 31 -50 21 -68 -24 -42 -17 10 -34 15 -37 11 -4 -4 10 -34 30 -67 36 -59
54 -78 41 -46 -3 8 -1 15 5 15 11 0 17 -15 49 -110 35 -107 36 -114 14 -102
-11 6 -50 40 -88 77 -52 50 -66 69 -58 77 13 13 16 58 4 58 -4 0 -20 12 -35
26 -21 19 -26 29 -18 37 19 19 12 53 -15 78 -27 25 -84 107 -84 121 0 22 24 2
53 -44z m2587 14 c0 -15 -2 -15 -10 -2 -13 20 -13 33 0 25 6 -3 10 -14 10 -23z
m-2646 -6 c8 -14 17 -31 18 -38 2 -7 18 -37 36 -67 21 -34 30 -57 24 -63 -14
-14 -50 29 -63 75 -5 21 -19 53 -30 70 -10 18 -19 35 -19 40 0 15 18 6 34 -17z
m1589 -21 c29 -25 71 -55 95 -66 51 -25 55 -44 8 -36 -51 8 -108 38 -114 59
-2 10 -19 27 -37 38 -18 11 -38 27 -45 35 -11 13 -8 15 15 15 18 0 44 -15 78
-45z m778 -2 c13 -16 12 -17 -3 -4 -17 13 -22 21 -14 21 2 0 10 -8 17 -17z
m-1776 -37 c21 -36 24 -48 15 -70 -13 -34 -35 -24 -75 34 -35 50 -26 64 14 21
38 -41 45 -39 21 6 -17 31 -19 53 -5 53 2 0 16 -20 30 -44z m-785 9 c7 -14 17
-25 20 -25 9 0 60 -76 60 -90 0 -5 -3 -10 -7 -10 -9 1 -90 109 -99 133 -10 27
11 20 26 -8z m159 -24 c12 -16 21 -38 21 -49 0 -10 9 -31 20 -44 38 -49 131
-191 127 -195 -10 -9 -34 10 -57 45 -13 20 -39 54 -57 75 -18 20 -33 43 -33
50 0 7 -16 33 -37 56 -25 30 -33 45 -24 50 6 4 9 15 5 24 -10 27 13 19 35 -12z
m1902 -8 c13 -16 12 -17 -3 -4 -17 13 -22 21 -14 21 2 0 10 -8 17 -17z m680
-46 c31 -20 59 -43 63 -52 9 -23 -18 -29 -53 -10 -23 11 -31 12 -31 3 0 -7
-17 5 -38 25 -21 20 -43 37 -50 37 -9 0 -11 27 -3 47 3 7 66 -21 112 -50z m99
18 c19 -19 30 -35 26 -35 -5 0 -2 -8 5 -17 7 -10 0 -7 -15 7 -51 44 -66 60
-66 70 0 18 16 10 50 -25z m-2258 -22 c40 -61 50 -103 42 -187 -8 -92 -21 -97
-63 -22 -35 61 -37 66 -16 66 8 0 15 -4 15 -8 0 -5 7 -17 16 -28 31 -38 5 37
-38 109 -56 95 -36 111 24 18 32 -49 30 -25 -3 41 -21 42 -23 48 -10 48 4 0
19 -17 33 -37z m320 -80 c8 -31 -11 -95 -32 -108 -12 -7 -30 34 -37 85 -4 31
-3 33 10 18 17 -21 27 -14 27 20 0 33 22 23 32 -15z m448 15 c0 -9 3 -8 10 2
8 12 11 12 28 -3 10 -9 22 -14 25 -10 4 3 7 2 7 -4 0 -5 17 -15 39 -21 43 -13
76 -42 47 -42 -25 0 -100 32 -114 49 -10 12 -11 12 -6 2 4 -9 -6 -6 -24 8 -33
23 -39 31 -22 31 6 0 10 -6 10 -12z m325 -29 c32 -30 45 -49 45 -69 0 -15 10
-36 25 -50 14 -13 25 -29 25 -37 0 -16 0 -16 -46 3 -22 9 -49 20 -62 25 -20 8
-21 11 -10 29 17 26 3 50 -40 69 -37 17 -40 27 -12 34 11 3 20 12 20 21 0 23
5 21 55 -25z m755 -4 c0 -2 -5 -7 -12 -11 -7 -5 -8 -3 -3 6 6 10 4 12 -8 7
-17 -6 -31 5 -20 16 5 6 43 -10 43 -18z m276 -20 c21 -19 35 -35 30 -35 -10 0
-76 54 -76 63 0 12 6 8 46 -28z m-2524 -7 c51 -55 91 -118 74 -118 -17 0 -126
119 -126 138 0 21 21 13 52 -20z m1901 -48 c56 -55 83 -76 85 -65 2 9 -6 32
-17 51 -25 41 -25 44 -8 44 18 -1 67 -70 67 -96 0 -12 8 -36 17 -53 10 -16 15
-33 11 -37 -4 -3 -42 20 -85 51 -85 64 -195 169 -186 179 16 16 41 0 116 -74z
m390 31 c17 -18 24 -32 18 -35 -6 -4 -19 7 -29 23 -10 17 -22 28 -25 24 -4 -3
-7 -1 -7 5 0 19 13 14 43 -17z m157 -52 c0 -14 -25 0 -38 22 -12 19 -12 20 13
3 14 -9 25 -20 25 -25z m205 23 c-3 -3 -11 0 -18 7 -9 10 -8 11 6 5 10 -3 15
-9 12 -12z m-2022 -24 c3 -18 9 -48 13 -65 9 -46 -16 -44 -50 5 -30 44 -36 80
-7 45 25 -30 28 -29 23 12 -5 44 13 46 21 3z m2132 -2 c20 -19 36 -39 34 -45
-2 -6 -23 10 -46 34 -50 53 -42 60 12 11z m-1669 -90 c13 -5 15 -2 11 14 -9
35 9 22 42 -31 48 -77 34 -90 -39 -38 -93 65 -134 104 -126 118 6 9 11 9 23
-1 14 -11 15 -10 9 9 -4 13 -4 28 0 34 4 8 18 -10 35 -43 15 -31 36 -58 45
-62z m610 55 c22 -16 51 -32 65 -36 33 -8 99 -62 99 -81 0 -8 -3 -14 -6 -14
-14 0 -224 114 -224 121 0 14 12 39 19 39 4 0 25 -13 47 -29z m-1097 -130 c16
-36 32 -76 36 -89 8 -26 101 -119 128 -128 14 -4 16 -9 6 -20 -17 -21 -31 -17
-69 21 -19 20 -57 55 -85 79 -27 25 -47 48 -43 52 4 4 14 1 23 -6 32 -27 14
11 -30 60 -28 32 -42 56 -38 66 3 9 -7 28 -27 50 -36 36 -34 60 2 28 20 -18
21 -18 15 -1 -4 11 -4 23 -1 29 7 12 44 -49 83 -141z m2311 14 c0 4 84 -71
152 -137 15 -14 28 -24 28 -22 0 3 6 -1 14 -8 28 -26 4 -28 -27 -2 -70 57
-259 240 -269 259 -5 11 16 -6 46 -38 31 -31 56 -55 56 -52z m-2766 52 c27
-35 33 -57 17 -57 -9 0 -71 73 -71 84 0 18 32 2 54 -27z m622 -28 c13 -27 22
-54 19 -59 -9 -14 -53 18 -80 59 -28 40 -25 53 6 25 22 -19 22 -19 17 8 -7 39
8 25 38 -33z m-313 -47 c75 -129 73 -162 -6 -85 -43 42 -67 82 -32 53 9 -7 19
-10 22 -6 4 4 -14 25 -40 47 -50 43 -61 65 -27 54 11 -4 20 -3 19 2 -8 44 13
23 64 -65z m1708 46 c15 -18 48 -57 73 -86 26 -29 44 -57 41 -62 -10 -16 -54
20 -80 65 -14 23 -35 51 -46 61 -11 10 -25 27 -30 36 -17 31 11 21 42 -14z
m-1831 -58 c11 -21 29 -44 40 -50 25 -13 62 -88 48 -96 -6 -4 -21 6 -33 22
-28 35 -44 26 -20 -10 40 -61 -31 -10 -84 60 -8 11 -25 31 -38 45 -30 33 -23
62 13 49 19 -8 26 -6 30 5 10 25 22 17 44 -25z m1755 -21 c50 -45 31 -58 -35
-24 -48 24 -51 27 -33 40 25 20 28 19 68 -16z m915 -103 c0 -6 -22 12 -50 39
-27 27 -50 52 -50 56 0 4 23 -14 50 -39 28 -25 50 -50 50 -56z m-1416 50 c33
-39 47 -77 29 -76 -29 2 -138 39 -141 48 -2 7 8 16 23 22 15 6 29 19 32 30 8
29 18 25 57 -24z m613 -66 c24 -27 30 -50 12 -50 -21 0 -108 53 -103 62 4 5
15 7 26 5 15 -4 18 -2 12 16 -6 20 -5 21 12 7 10 -8 28 -26 41 -40z m-430 -12
c34 -33 58 -48 60 -40 3 6 13 12 24 12 10 0 19 7 19 15 0 8 6 15 14 15 19 0
103 -76 94 -86 -4 -4 -31 0 -59 9 -28 10 -74 17 -102 17 -61 0 -157 30 -157
49 0 10 9 12 38 6 l37 -7 -23 24 c-19 21 -21 38 -5 38 2 0 29 -24 60 -52z
m-1180 8 c10 -13 26 -38 35 -55 17 -31 45 -44 34 -16 -9 25 7 17 49 -25 22
-23 50 -50 63 -62 20 -19 31 -68 16 -68 -10 0 -89 65 -181 149 -72 67 -80 76
-65 88 23 17 28 16 49 -11z m1760 -8 c32 -31 43 -58 23 -58 -19 0 -83 66 -76
78 11 18 17 15 53 -20z m-994 8 c37 -15 81 -59 76 -75 -5 -14 -118 60 -119 77
0 15 3 15 43 -2z m1811 -133 c183 -179 332 -313 339 -307 8 8 -10 52 -34 83
-11 14 -64 71 -117 126 -54 55 -104 109 -112 120 -33 42 35 -15 138 -117 68
-68 117 -127 143 -173 48 -84 62 -108 69 -115 10 -9 40 -59 40 -66 0 -3 -7 0
-16 7 -15 12 -15 10 0 -25 19 -45 19 -46 6 -46 -6 0 -26 22 -46 49 -25 35 -40
48 -52 45 -15 -5 -15 -4 1 9 16 13 16 18 5 36 -7 12 -18 21 -24 21 -7 0 -19
10 -27 23 -45 66 -123 117 -180 117 -9 0 -17 4 -17 10 0 5 -35 33 -77 62 -86
57 -137 101 -113 96 8 -2 17 -5 20 -8 20 -20 121 -81 130 -78 5 1 -18 25 -53
52 -34 28 -81 65 -104 84 -24 18 -43 38 -43 44 0 6 9 1 20 -12 11 -13 20 -17
20 -11 0 15 -38 71 -60 88 -12 10 -12 12 -1 13 7 0 73 -57 145 -127z m10 92
c11 -8 16 -15 10 -15 -5 -1 2 -7 15 -14 13 -7 20 -16 15 -18 -5 -3 -25 10 -44
28 -35 34 -32 46 4 19z m-2656 -30 c23 -37 28 -55 13 -55 -14 0 -71 72 -65 82
11 17 30 7 52 -27z m2498 14 c19 -22 19 -22 -3 -8 -13 8 -23 17 -23 21 0 12 6
9 26 -13z m-2566 -11 c17 -18 27 -48 17 -48 -2 0 -18 16 -37 35 -25 26 -29 35
-17 35 9 0 25 -10 37 -22z m2440 -23 c14 -19 14 -19 -2 -6 -10 7 -18 18 -18
24 0 6 1 8 3 6 1 -2 9 -13 17 -24z m-582 -32 c17 -26 27 -52 23 -56 -8 -8
-111 37 -111 48 0 6 44 53 51 54 4 1 20 -20 37 -46z m-1492 14 c5 -1 9 -8 11
-15 1 -10 -4 -8 -18 4 -10 9 -19 22 -19 28 0 6 4 5 9 -2 4 -8 12 -14 17 -15z
m1262 -20 c61 -62 57 -81 -11 -52 -20 8 -48 15 -63 15 -35 0 -26 23 12 30 19
4 25 8 17 13 -14 9 -18 37 -5 37 4 0 27 -19 50 -43z m407 -24 c17 -26 22 -40
14 -48 -13 -12 -59 40 -59 68 0 28 17 20 45 -20z m-1860 -13 c14 -22 31 -40
39 -40 15 0 76 -65 76 -80 0 -25 -33 -4 -104 67 -56 55 -73 78 -64 84 21 14
27 11 53 -31z m-59 -22 c17 -18 37 -42 45 -52 12 -17 12 -19 -2 -10 -29 16
-89 73 -89 84 0 18 15 11 46 -22z m2513 -43 c24 -20 52 -40 63 -46 10 -5 16
-14 13 -20 -4 -5 -3 -9 2 -8 13 3 113 -44 113 -53 0 -13 -24 -9 -47 7 -12 8
-30 12 -40 9 -15 -5 -15 -4 -3 5 11 8 11 11 3 12 -7 1 -17 2 -23 3 -18 2 -160
128 -160 142 0 12 3 12 18 0 9 -8 37 -31 61 -51z m-1491 -25 c12 -12 20 -25
18 -29 -3 -4 -39 0 -81 8 -74 15 -93 33 -42 39 15 2 25 8 22 13 -4 5 -3 14 0
19 7 11 40 -10 83 -50z m1173 43 c13 -17 13 -17 -6 -3 -11 8 -22 16 -24 17 -2
2 0 3 6 3 6 0 17 -8 24 -17z m-1877 -45 c17 -24 21 -58 8 -58 -5 0 -20 13 -35
28 -21 22 -24 31 -15 40 17 17 25 15 42 -10z m-204 -43 c18 -19 31 -38 27 -41
-7 -8 -87 54 -87 67 0 19 28 7 60 -26z m1939 -17 c17 -49 12 -118 -9 -118 -18
0 -48 128 -35 149 10 17 33 1 44 -31z m-1752 -40 c17 -25 31 -37 41 -33 15 5
107 -84 96 -94 -8 -9 -94 40 -144 82 -25 21 -56 47 -69 58 -18 15 -21 23 -12
28 25 16 63 -2 88 -41z m180 32 c14 -11 35 -20 47 -20 31 -1 61 -20 95 -64 58
-72 14 -80 -83 -15 -33 21 -62 37 -64 34 -3 -3 8 -20 24 -38 61 -65 104 -126
94 -132 -5 -3 -28 6 -50 21 -29 19 -39 32 -35 44 4 13 -4 24 -29 39 -50 31
-61 48 -46 66 8 9 10 29 7 50 -7 40 3 44 40 15z m1138 -21 c49 -55 37 -69 -42
-49 -69 18 -86 44 -25 38 37 -3 40 -2 26 13 -16 17 -19 39 -5 39 5 0 25 -18
46 -41z m-488 -1 c33 -32 43 -58 21 -58 -6 0 -38 5 -70 12 -63 13 -77 35 -29
44 20 4 28 11 24 20 -9 25 20 15 54 -18z m754 -43 c10 -22 19 -55 19 -72 0
-38 -15 -41 -81 -21 -55 16 -53 43 2 35 l42 -5 -44 44 c-44 44 -48 65 -9 44
25 -13 39 -5 22 12 -7 7 -12 19 -12 27 0 24 40 -18 61 -64z m375 -21 l42 -49
-20 -80 c-10 -43 -24 -82 -30 -86 -13 -8 -31 7 -41 34 -6 15 -3 17 13 12 27
-9 26 12 -5 56 -27 40 -21 63 7 27 l18 -23 0 32 c0 22 -10 43 -30 66 -16 19
-30 42 -30 50 0 28 33 11 76 -39z m-2005 -7 c58 -57 168 -134 211 -149 18 -6
47 -23 63 -38 17 -16 46 -35 65 -44 48 -21 70 -40 75 -65 3 -19 -3 -16 -52 19
-31 22 -60 40 -65 40 -5 0 -22 10 -39 22 -23 18 -32 20 -38 10 -19 -31 -151
54 -175 112 -7 17 -36 52 -65 78 -28 25 -51 49 -51 52 0 18 32 1 71 -37z m661
26 c20 -18 24 -43 8 -43 -16 0 -88 38 -95 50 -11 17 67 11 87 -7z m-71 -60
c13 -17 13 -17 -6 -3 -11 8 -22 16 -24 17 -2 2 0 3 6 3 6 0 17 -8 24 -17z
m526 -19 c48 -51 33 -61 -57 -39 -75 18 -92 42 -26 37 20 -2 36 2 36 8 0 5 -5
10 -11 10 -5 0 -7 5 -4 10 11 18 27 11 62 -26z m258 -9 c14 -13 25 -29 25 -34
0 -18 -45 -23 -89 -11 -44 12 -51 33 -13 38 12 2 22 10 22 18 0 22 28 17 55
-11z m707 -22 c13 -32 19 -53 20 -70 1 -7 5 -13 9 -13 5 0 5 -7 2 -17 -4 -11
-3 -14 5 -9 7 4 12 1 12 -8 0 -9 8 -16 18 -16 10 0 23 -5 30 -12 7 -7 12 -8
12 -4 0 5 7 3 15 -4 29 -24 18 -49 -25 -56 -30 -5 -40 -11 -40 -25 0 -28 -18
-23 -35 11 -9 17 -12 30 -8 29 40 -7 42 17 8 85 -13 27 -22 52 -20 56 3 4 -2
11 -11 14 -10 4 -14 14 -11 26 3 11 1 20 -5 20 -5 0 -6 5 -3 10 10 15 15 12
27 -17z m-346 -35 c6 -19 7 -19 16 -4 15 26 28 9 28 -38 0 -30 -6 -48 -20 -61
-20 -18 -21 -18 -48 8 -36 34 -39 34 -34 -5 2 -19 -3 -42 -12 -53 -14 -19 -16
-19 -44 -3 -18 11 -60 19 -110 23 -85 5 -100 1 -56 -15 19 -8 23 -14 16 -26
-8 -15 -1 -79 10 -90 2 -2 15 -5 29 -7 13 -2 23 -7 22 -11 -1 -3 -3 -11 -5
-16 -2 -5 -29 -15 -60 -21 -46 -9 -61 -9 -73 1 -13 11 -13 15 -3 21 7 5 13 14
13 21 0 7 8 12 18 10 21 -4 21 4 3 56 -11 30 -12 43 -4 48 7 5 8 2 3 -7 -6
-11 -5 -12 5 -2 10 9 10 15 1 26 -18 23 24 43 105 51 60 6 74 4 89 -10 15 -16
16 -15 10 19 -6 31 -4 37 19 52 25 17 28 17 47 -1 20 -18 20 -18 9 10 -10 28
-6 46 10 46 5 0 12 -10 16 -22z m-806 -77 c11 -22 4 -31 -27 -31 -12 0 -23 -4
-23 -10 0 -5 -4 -10 -9 -10 -14 0 -72 51 -67 58 2 4 29 8 60 9 45 1 58 -2 66
-16z m-165 -30 c11 -9 21 -26 21 -39 1 -22 1 -22 -17 -6 -11 9 -19 13 -19 8 0
-5 -5 -1 -11 9 -5 9 -7 23 -3 30 4 6 4 9 -1 5 -11 -10 -47 11 -40 23 7 10 36
-3 70 -30z m-514 -37 c9 -11 8 -14 -7 -14 -18 1 -64 32 -64 44 0 9 58 -15 71
-30z m2049 -11 c0 -20 -18 -16 -30 7 -15 28 -1 49 17 25 7 -11 13 -25 13 -32z
m596 -1 c10 -20 23 -43 28 -51 21 -29 13 -77 -8 -50 -6 8 -28 28 -49 43 -29
22 -35 32 -26 42 6 8 9 21 5 29 -3 8 -1 15 5 15 6 0 7 4 4 10 -3 5 0 7 8 4 8
-3 23 -22 33 -42z m-1552 6 c18 -42 10 -61 -21 -53 -31 7 -73 34 -73 46 0 6 8
12 18 15 9 3 24 9 32 14 25 14 30 12 44 -22z m1027 5 c11 -29 5 -140 -13 -231
-12 -66 -36 -92 -83 -92 -43 0 -45 14 -5 35 17 9 36 27 42 40 9 21 7 31 -16
65 -28 42 -22 54 9 20 27 -29 42 -25 49 16 5 26 2 44 -13 69 -16 27 -17 33 -4
28 13 -5 14 0 8 35 -8 49 9 58 26 15z m-1198 0 c9 -2 17 -11 17 -19 0 -12 -12
-18 -25 -11 -2 1 -11 -7 -19 -18 -12 -17 -18 -18 -33 -7 -10 6 -28 16 -40 22
-23 9 -30 30 -16 44 7 6 77 0 116 -11z m607 -33 c4 7 7 -7 7 -31 0 -24 -2 -35
-4 -24 -3 11 -9 24 -14 30 -5 5 -9 16 -8 25 0 11 2 12 6 1 4 -10 7 -10 13 -1z
m-1258 -51 c19 -14 26 -25 19 -27 -19 -6 -88 27 -88 43 0 18 31 11 69 -16z
m1222 -15 c9 -22 7 -64 -2 -64 -10 0 -33 61 -26 71 8 14 21 10 28 -7z m-858
-40 c4 -24 2 -39 -6 -47 -10 -9 -11 -9 -6 1 4 6 3 12 -2 12 -15 0 -21 37 -8
51 8 9 8 10 -1 5 -7 -4 -13 -2 -13 3 0 6 7 11 15 11 8 0 17 -14 21 -36z m759
16 c3 -5 1 -10 -4 -10 -6 0 -11 5 -11 10 0 6 2 10 4 10 3 0 8 -4 11 -10z
m-1055 -40 c40 -20 60 -40 40 -40 -23 0 -110 43 -104 51 8 13 21 11 64 -11z
m1644 -12 c8 -12 13 -25 10 -30 -3 -5 0 -7 7 -6 7 2 15 -5 17 -14 2 -11 -2
-18 -10 -18 -20 0 -81 66 -74 79 11 18 34 13 50 -11z m803 -13 c19 -19 37 -35
41 -35 5 0 41 -46 82 -102 40 -57 81 -110 89 -119 9 -9 24 -26 33 -38 17 -20
17 -21 -1 -21 -11 0 -21 3 -23 8 -1 4 -21 23 -43 42 -22 20 -41 39 -42 43 -7
26 -40 67 -62 78 -14 7 -51 38 -81 69 -43 45 -54 63 -52 84 4 35 18 33 59 -9z
m-529 -87 c30 -38 42 -78 23 -78 -5 0 -14 6 -21 14 -6 8 -18 12 -25 9 -9 -3
-21 8 -32 31 -9 20 -23 36 -30 36 -11 0 -11 3 -1 14 22 24 52 15 86 -26z
m-1141 -3 c8 -21 -1 -28 -26 -20 -12 4 -18 12 -14 21 7 19 32 18 40 -1z m1055
-52 c-6 -82 -22 -103 -76 -103 -50 0 -161 32 -191 54 -25 19 -11 20 65 3 30
-7 74 -11 97 -9 35 3 43 7 53 33 11 26 47 79 54 79 1 0 1 -26 -2 -57z m217
-62 c13 -40 14 -61 3 -61 -14 0 -32 48 -32 82 0 37 12 28 29 -21z m-556 10
c-7 -28 -44 -59 -75 -65 -32 -5 -48 10 -20 18 10 4 31 20 47 36 33 34 56 39
48 11z m978 -178 c13 -16 12 -17 -3 -4 -17 13 -22 21 -14 21 2 0 10 -8 17 -17z
m138 -88 c19 -14 29 -25 24 -25 -10 0 -88 52 -108 72 -15 15 44 -19 84 -47z
m-2466 -162 c-4 -10 -2 -14 4 -10 13 8 11 -18 -1 -30 -4 -4 -6 -1 -4 7 2 10
-3 14 -15 12 -17 -3 -17 -2 0 17 21 25 24 26 16 4z m-49 -25 c4 4 6 1 4 -7 -1
-7 3 -16 11 -19 9 -3 11 0 6 8 -5 8 -4 11 3 6 6 -4 9 -13 5 -22 -4 -10 -9 -12
-18 -4 -6 5 -15 7 -18 3 -4 -3 -12 -1 -19 4 -7 6 -20 13 -28 16 -8 2 -2 3 14
1 26 -4 27 -2 15 14 -12 15 -12 16 2 5 9 -7 19 -9 23 -5z m-644 -213 c-7 -8
-17 -15 -23 -15 -6 0 -2 7 9 15 25 19 30 19 14 0z" />
                <path d="M1559 4442 l-27 -3 25 -25 c28 -28 36 -26 31 8 -2 18 -8 22 -29 20z" />
                <path d="M1613 4416 c6 -36 49 -96 69 -96 14 0 9 15 -26 69 -45 70 -50 73 -43
27z" />
                <path d="M1600 4346 c1 -25 30 -60 123 -146 57 -54 97 -85 97 -76 0 24 18 19
45 -11 l24 -28 1 32 c0 41 -27 67 -105 103 -60 27 -169 115 -160 129 2 4 -2 8
-10 8 -8 0 -15 -5 -15 -11z" />
                <path d="M1721 4355 c3 -5 14 -30 26 -55 12 -28 31 -50 47 -58 30 -14 31 -15
-16 54 -26 39 -67 81 -57 59z" />
                <path d="M2058 4258 c7 -7 12 -27 12 -44 0 -27 9 -40 45 -69 25 -21 67 -67 94
-104 47 -63 87 -98 98 -87 10 9 -72 159 -96 175 -24 16 -63 53 -114 110 -16
17 -33 31 -40 31 -8 0 -8 -3 1 -12z" />
                <path d="M2130 4043 c0 -28 17 -126 30 -174 l12 -44 16 33 c20 40 28 40 36 1
9 -44 8 -71 -3 -65 -5 3 -11 -3 -14 -13 -3 -14 10 -36 44 -73 40 -44 50 -50
59 -38 8 13 11 13 19 1 17 -27 17 22 0 59 -9 19 -25 62 -34 95 -10 33 -31 75
-48 94 -16 19 -45 59 -64 88 -34 54 -53 67 -53 36z" />
                <path d="M1921 3411 c-12 -12 -17 -27 -14 -40 3 -12 6 -21 7 -21 0 0 26 -3 56
-6 30 -4 67 -13 83 -20 40 -21 33 -5 -23 54 -53 56 -79 63 -109 33z" />
                <path d="M3040 3306 c0 -2 8 -10 18 -17 15 -13 16 -12 3 4 -13 16 -21 21 -21
13z" />
                <path d="M3456 2515 c4 -8 7 -15 9 -15 2 0 5 7 9 15 3 9 0 15 -9 15 -9 0 -12
-6 -9 -15z" />
                <path d="M3493 2511 c0 -11 5 -18 9 -15 4 3 5 11 1 19 -7 21 -12 19 -10 -4z" />
                <path d="M1180 2715 c0 -27 38 -88 50 -80 10 6 -5 43 -34 80 l-15 20 -1 -20z" />
                <path d="M1895 5789 c-71 -3 -132 -8 -135 -9 -8 -4 81 -21 110 -22 69 -1 402
23 422 32 27 10 -198 10 -397 -1z" />
                <path d="M503 5293 c9 -2 23 -2 30 0 6 3 -1 5 -18 5 -16 0 -22 -2 -12 -5z" />
                <path d="M420 5267 c0 -14 31 -47 43 -47 10 0 4 44 -8 52 -16 12 -35 9 -35 -5z" />
                <path d="M321 4513 c-14 -37 -33 -125 -27 -130 12 -12 40 55 44 103 5 60 0 68
-17 27z" />
                <path d="M631 3204 c0 -11 3 -14 6 -6 3 7 2 16 -1 19 -3 4 -6 -2 -5 -13z" />
                <path d="M2925 1480 c-4 -6 -9 -37 -12 -68 -4 -44 0 -68 15 -102 l21 -45 0 36
c1 20 -4 50 -10 67 -8 23 -8 41 1 68 8 24 9 39 2 46 -6 6 -12 6 -17 -2z" />
                <path d="M2381 1393 c32 -41 89 -94 89 -83 0 22 -32 67 -60 84 -36 21 -46 20
-29 -1z" />
                <path d="M2988 1302 c3 -55 33 -152 47 -152 1 0 3 18 3 41 1 28 -6 47 -20 61
-16 16 -19 29 -15 59 3 23 0 42 -7 48 -9 8 -11 -6 -8 -57z" />
                <path d="M2820 1325 c0 -12 35 -75 42 -75 13 0 9 34 -8 58 -13 19 -34 30 -34
17z" />
                <path d="M2707 1304 c-13 -13 -7 -89 9 -112 13 -19 24 -22 77 -22 65 0 67 10
6 29 -44 14 -65 35 -76 79 -4 18 -12 30 -16 26z" />
                <path d="M4766 1228 c5 -13 68 -58 81 -58 4 0 -8 16 -27 35 -33 34 -64 47 -54
23z" />
                <path d="M3066 1194 c-9 -34 7 -51 58 -65 22 -6 72 -24 109 -41 54 -23 71 -27
82 -18 10 8 34 10 77 5 77 -9 95 -16 133 -50 59 -53 93 -76 125 -85 27 -8 30
-7 20 5 -7 8 -27 24 -44 35 -18 11 -41 36 -52 55 -14 27 -28 38 -59 46 -22 5
-60 16 -85 24 -25 7 -83 23 -128 34 -46 11 -109 34 -140 51 -68 37 -88 38 -96
4z" />
                <path d="M2850 1201 c0 -5 5 -13 10 -16 6 -3 10 -2 10 4 0 5 -4 13 -10 16 -5
3 -10 2 -10 -4z" />
                <path d="M2818 1132 c-62 -17 -71 -29 -37 -50 18 -11 30 -9 90 14 38 15 68 32
66 38 -5 17 -55 16 -119 -2z" />
                <path d="M4920 1117 c0 -17 174 -144 240 -176 43 -21 -60 66 -130 110 -36 22
-75 47 -87 56 -13 8 -23 13 -23 10z" />
                <path d="M4225 1076 c-23 -21 -58 -40 -87 -46 -43 -11 -75 -30 -49 -30 6 0 34
-23 63 -50 60 -58 153 -108 348 -186 156 -63 195 -70 132 -23 -23 17 -42 34
-42 39 0 10 -15 16 -118 46 -45 13 -93 24 -106 24 -16 0 -39 19 -75 60 l-52
59 36 15 c59 25 71 91 19 114 -32 15 -24 17 -69 -22z" />
                <path d="M5170 902 c0 -9 108 -72 123 -72 6 0 3 9 -8 19 -22 21 -115 64 -115
53z" />
                <path d="M2414 748 c-5 -7 -3 -8 6 -3 10 6 12 4 7 -9 -4 -10 -3 -15 3 -11 13
8 13 35 1 35 -6 0 -13 -5 -17 -12z" />
                <path d="M2281 684 c6 -7 17 -10 25 -7 20 7 18 10 -11 15 -20 4 -23 2 -14 -8z" />
                <path d="M2213 635 c0 -8 4 -15 9 -15 4 0 8 4 8 9 0 6 -4 12 -8 15 -5 3 -9 -1
-9 -9z" />
                <path d="M505 446 c-16 -8 -45 -30 -64 -50 -29 -30 -35 -44 -38 -93 l-3 -58
23 50 c28 59 50 80 103 99 38 14 39 15 9 16 -29 1 -29 1 -10 16 16 13 38 15
110 11 103 -5 129 -13 120 -35 -4 -12 -2 -12 8 -4 8 7 17 9 20 5 15 -14 5 -20
-34 -21 -24 -1 -51 -10 -66 -22 -32 -25 -71 -26 -90 -2 -13 16 -14 16 -11 -3
2 -10 16 -26 31 -35 25 -13 30 -13 55 1 15 8 36 21 47 27 11 6 42 14 69 17 35
5 45 9 35 16 -20 12 -8 11 72 -7 58 -13 79 -14 117 -4 27 7 71 9 108 5 37 -4
64 -3 68 3 10 16 -54 21 -143 10 -91 -12 -145 -1 -243 48 -41 21 -61 24 -155
24 -68 -1 -119 -6 -138 -14z" />
                <path d="M2300 420 c-8 -5 -41 -15 -72 -21 -32 -6 -63 -18 -69 -25 -6 -8 -17
-14 -23 -14 -6 0 -16 -8 -23 -19 -20 -31 17 -61 75 -61 46 0 47 1 66 46 10 25
21 43 23 40 3 -3 14 4 26 15 11 10 30 19 41 19 34 0 66 12 60 21 -7 12 -85 11
-104 -1z" />
                <path d="M2432 420 c2 -7 -11 -17 -29 -22 -18 -4 -35 -13 -38 -18 -9 -15 30
-12 102 6 63 16 64 16 116 -9 29 -14 70 -28 91 -32 39 -6 115 -42 147 -67 8
-7 32 -35 52 -61 39 -52 46 -49 22 9 -41 98 -135 164 -232 164 -30 0 -68 7
-85 16 -42 22 -150 32 -146 14z" />
                <path d="M1033 331 c3 -13 0 -18 -7 -15 -7 3 -13 -2 -13 -10 0 -8 4 -13 9 -10
4 3 8 -2 8 -11 0 -9 3 -14 8 -12 4 3 12 -1 19 -8 9 -10 -2 -16 -54 -29 -79
-19 -103 -11 -103 37 0 54 -10 61 -81 53 -45 -4 -70 -13 -87 -29 -28 -25 -62
-93 -61 -122 0 -19 0 -19 12 -1 47 75 125 130 175 124 23 -3 28 -9 30 -38 7
-66 21 -69 182 -40 69 13 120 5 164 -25 58 -39 231 -44 244 -6 3 10 -11 12
-71 6 -87 -8 -122 -2 -159 28 l-27 22 142 -3 c121 -2 143 -5 152 -19 26 -44
53 -61 106 -68 68 -8 193 14 280 49 76 30 133 33 259 12 127 -21 371 -40 413
-32 41 8 60 33 55 74 l-4 27 -12 -28 c-19 -45 -47 -51 -174 -39 -62 7 -123 9
-134 6 -26 -7 -253 34 -271 49 -9 6 -13 6 -13 -2 0 -6 -8 -11 -19 -11 -10 0
-38 -7 -62 -16 -123 -45 -293 -73 -327 -55 -24 13 -55 65 -45 75 4 3 -9 6 -28
6 -19 0 -39 4 -45 9 -5 5 -65 11 -134 14 -99 4 -141 11 -199 31 -92 32 -136
34 -128 7z" />
                <path d="M1894 343 c5 -10 -3 -13 -28 -13 -23 0 -45 -9 -66 -26 -26 -23 -37
-26 -73 -20 -33 6 -39 4 -30 -5 25 -25 173 -43 158 -20 -2 4 9 5 26 3 35 -5
62 14 56 39 -3 10 -1 20 4 23 5 2 4 3 -3 2 -7 -2 -22 4 -32 13 -11 9 -16 10
-12 4z" />
                <path d="M2410 336 c-76 -20 -21 -25 65 -6 78 18 79 18 30 18 -27 0 -70 -5
-95 -12z" />
                <path d="M2640 325 c0 -11 9 -38 20 -60 l20 -40 -4 44 c-5 46 -36 95 -36 56z" />
                <path d="M2303 290 c9 -6 15 -15 12 -21 -3 -5 1 -6 10 -3 23 9 13 28 -16 32
-21 2 -22 1 -6 -8z" />
        </g>


        <g stroke="white" fill="none" fill-rule="evenodd" stroke-linecap="round" stroke-linejoin="bevel"
                transform="translate(4800,0) scale(6)">
                <g class="stars" fill="#FFF">
                        <path d="M41.2747 8.7875L39.0385 6.243l.559-3.534c.1398-.5654-.1397-1.1308-.559-1.4135-.4193-.2828-.9783-.424-1.5374-.1414l-3.214 1.697-3.215-1.697c-.419-.282-.978-.141-1.537.142-.419.283-.699.848-.559 1.414l.559 3.534-2.516 2.545c-.419.424-.559.99-.419 1.414.14.566.559.849 1.118.99l3.634.566 1.538 3.251c.28.424.699.848 1.258.848s.979-.282 1.258-.848l1.537-3.251 3.634-.565c.559-.141.979-.424 1.118-.989.14-.565 0-1.131-.419-1.413z"
                                class="star5">
                                <animate attributeName="opacity" values="0;1;0" dur="3s" begin="0s"
                                        repeatCount="indefinite" />
                        </path>
                        <path d="M14.474 138.1216l-2.046-2.328.5116-3.233c.1278-.5174-.128-1.0348-.5115-1.2934-.383-.2587-.895-.388-1.406-.1293l-2.941 1.551-2.941-1.552c-.383-.259-.895-.13-1.406.129-.383.258-.639.776-.511 1.293l.512 3.233-2.301 2.328c-.383.388-.511.905-.383 1.293.128.517.512.776 1.023.905l3.325.517 1.406 2.975c.256.388.64.776 1.151.776s.895-.259 1.151-.776l1.407-2.975 3.325-.518c.512-.129.895-.388 1.023-.905.128-.518 0-1.035-.383-1.293z"
                                class="star4">
                                <animate attributeName="opacity" values="0;1;0" dur="3s" begin="1s"
                                        repeatCount="indefinite" />
                        </path>
                        <path d="M315.359 39.5376l-1.674-1.9047.4184-2.646c.1046-.424-.1046-.847-.4185-1.059-.314-.212-.733-.318-1.151-.106l-2.407 1.27-2.407-1.27c-.314-.212-.733-.106-1.151.105-.314.212-.523.635-.419 1.058l.418 2.645-1.883 1.904c-.314.318-.419.741-.314 1.058.104.423.418.635.837.741l2.72.423 1.151 2.433c.209.3172.523.635.941.635s.732-.212.941-.635l1.151-2.434 2.72-.423c.418-.106.732-.3178.837-.741.104-.423 0-.8465-.314-1.058z"
                                class="star3">
                                <animate attributeName="opacity" values="0;1;0" dur="3s" begin="2s"
                                        repeatCount="indefinite" />
                        </path>
                        <path d="M259.426 119.79l-1.332-1.5157.333-2.1053c.0832-.337-.0833-.6738-.333-.8422-.25-.1684-.583-.2526-.916-.0842l-1.915 1.0106-1.915-1.0106c-.2498-.1684-.583-.0842-.916.0842-.2497.1684-.4163.5053-.333.8422l.333 2.1053-1.4987 1.5158c-.2497.253-.333.59-.2497.843.0832.337.333.506.666.59l2.165.337.9157 1.937c.1666.253.4164.506.7494.506.333 0 .5828-.168.7494-.505l.916-1.937 2.165-.336c.333-.084.583-.252.666-.589.084-.337 0-.673-.249-.842z"
                                class="star2">
                                <animate attributeName="opacity" values="0;1;0" dur="3s" begin="0.5s"
                                        repeatCount="indefinite" />
                        </path>
                        <path d="M224.6333 23.506l-2.2362-2.5444.56-3.534c.14-.5654-.14-1.1308-.559-1.4136-.419-.2827-.978-.424-1.537-.1413l-3.214 1.6963-3.214-1.6963c-.419-.2827-.978-.1414-1.537.1413-.419.2828-.699.8482-.559 1.4136l.559 3.534-2.515 2.5445c-.419.424-.559.99-.419 1.414.14.566.559.848 1.118.99l3.634.566 1.537 3.251c.28.424.699.849 1.258.849s.978-.282 1.258-.848l1.538-3.251 3.634-.565c.559-.141.978-.424 1.118-.989.14-.565 0-1.131-.419-1.413z"
                                class="star1">
                                <animate attributeName="opacity" values="0;1;0" dur="3s" begin="1.5s"
                                        repeatCount="indefinite" />
                        </path>
                        <path d="M94.8036 93.628l-1.4273-1.624.3568-2.2558c.09-.361-.089-.7218-.356-.9023-.267-.181-.624-.271-.981-.091l-2.051 1.083-2.052-1.083c-.267-.181-.624-.09-.981.09-.267.18-.446.541-.356.902l.357 2.255-1.605 1.624c-.267.271-.357.631-.267.902.09.361.357.541.714.631l2.32.361.981 2.075c.179.271.446.541.803.541.357 0 .625-.181.803-.542l.981-2.075 2.32-.361c.357-.091.624-.271.7138-.632.089-.361 0-.722-.2677-.902z"
                                class="star0">
                                <animate attributeName="opacity" values="0;1;0" dur="3s" begin="2.5s"
                                        repeatCount="indefinite" />
                        </path>
                </g>
        </g>
</svg>
